<svg width="48" height="48" viewBox="0 0 48 48" fill="currentColor" xmlns="http://www.w3.org/2000/svg">
<path fill-rule="evenodd" clip-rule="evenodd" d="M7.2 7H39.8C40.4627 7 41 7.53726 41 8.2V40.8C41 41.4627 40.4627 42 39.8 42H7.2C6.53726 42 6 41.4627 6 40.8V8.2C6 7.53726 6.53726 7 7.2 7ZM16.8873 19.4694C16.7422 19.5299 16.6106 19.6184 16.5 19.73L11 25.19V35.81C11 35.9671 11.0311 36.1227 11.0916 36.2677C11.152 36.4128 11.2405 36.5444 11.3521 36.655C11.4636 36.7657 11.596 36.8531 11.7415 36.9123C11.887 36.9715 12.0429 37.0013 12.2 37H34.9C35.0571 37.0013 35.2129 36.9715 35.3585 36.9123C35.504 36.8531 35.6364 36.7657 35.7479 36.655C35.8595 36.5444 35.9481 36.4128 36.0085 36.2677C36.0689 36.1227 36.1 35.9671 36.1 35.81V29.72L31.38 24.99C31.154 24.7695 30.8507 24.6461 30.535 24.6461C30.2192 24.6461 29.916 24.7695 29.69 24.99L26.57 28.11L18.19 19.73C18.0794 19.6184 17.9478 19.5299 17.8027 19.4694C17.6577 19.409 17.5021 19.3779 17.345 19.3779C17.1879 19.3779 17.0323 19.409 16.8873 19.4694ZM33.95 9.5H33.05C32.6082 9.5 32.25 9.85817 32.25 10.3V13.25H29.3C28.8582 13.25 28.5 13.6082 28.5 14.05V14.95C28.5 15.3918 28.8582 15.75 29.3 15.75H32.25V18.7C32.25 19.1418 32.6082 19.5 33.05 19.5H33.95C34.3918 19.5 34.75 19.1418 34.75 18.7V15.75H37.7C38.1418 15.75 38.5 15.3918 38.5 14.95V14.05C38.5 13.6082 38.1418 13.25 37.7 13.25H34.75V10.3C34.75 9.85817 34.3918 9.5 33.95 9.5Z" fill="currentColor"/>
</svg>
