<svg width="35" height="35" viewBox="0 0 35 35" fill="currentColor" xmlns="http://www.w3.org/2000/svg">
<path d="M14.9779 27.243L13.7779 28.443C12.7939 29.4283 11.4588 29.9824 10.0664 29.9833C8.67393 29.9843 7.33817 29.432 6.35289 28.448C5.36761 27.4641 4.81355 26.129 4.81261 24.7366C4.81167 23.3441 5.36393 22.0083 6.34789 21.0231L10.7179 16.693C11.5422 15.9117 12.5924 15.4108 13.7184 15.2617C14.8443 15.1126 15.9886 15.3231 16.9879 15.863L17.2079 15.9731C17.3479 16.0631 17.4779 16.1731 17.6079 16.2731C17.7956 16.4022 17.9728 16.546 18.1379 16.703C18.6328 17.1972 19.0238 17.7854 19.2879 18.433C19.9485 18.5899 20.6376 18.5806 21.2937 18.4061C21.9498 18.2316 22.5525 17.8973 23.0479 17.433L23.9179 16.553C23.4046 15.2791 22.6432 14.12 21.6779 13.1431L21.4379 12.933C21.2884 12.7883 21.1316 12.6515 20.9679 12.5231L20.8879 12.4631C18.9621 10.8793 16.5226 10.0564 14.0311 10.1504C11.5395 10.2444 9.16883 11.2487 7.36791 12.9731L7.15788 13.1531L5.95787 14.353L2.81786 17.493C0.976254 19.4335 -0.034536 22.0166 0.000901283 24.6917C0.0363385 27.3667 1.11525 29.9222 3.00762 31.8132C4.89998 33.7043 7.45608 34.7814 10.1312 34.815C12.8062 34.8486 15.3886 33.836 17.3279 31.993L18.5279 30.793L14.9779 27.243Z" fill="currentColor"/>
<path d="M31.7971 17.5031C33.7199 15.5802 34.8001 12.9723 34.8001 10.2531C34.8001 7.53377 33.7199 4.92587 31.7971 3.00305C30.845 2.05097 29.7147 1.29572 28.4707 0.780457C27.2267 0.265193 25.8935 0 24.5471 0C21.8278 0 19.2199 1.08023 17.2971 3.00305L16.097 4.20306L19.627 7.73303L20.827 6.53308C21.8226 5.59765 23.1431 5.08619 24.509 5.10699C25.8749 5.1278 27.1791 5.67922 28.1458 6.64453C29.1124 7.60984 29.6655 8.91335 29.6881 10.2792C29.7108 11.6451 29.2011 12.9663 28.267 13.9631L23.907 18.313C23.6854 18.5311 23.4444 18.7286 23.187 18.9031L22.907 19.063C22.739 19.1629 22.5654 19.2531 22.387 19.3331L22.007 19.4731L21.537 19.613C21.3891 19.6526 21.2388 19.6827 21.087 19.7031C20.9505 19.7123 20.8136 19.7123 20.6771 19.7031C20.4971 19.7031 20.327 19.7031 20.147 19.7031H19.8571C19.0842 19.6587 18.3302 19.4472 17.647 19.0831L17.4271 18.9731C17.2871 18.8831 17.157 18.773 17.017 18.673C16.8349 18.5407 16.6613 18.3971 16.4971 18.243C15.9997 17.747 15.6084 17.155 15.347 16.5031C14.6865 16.3462 13.9973 16.3555 13.3412 16.53C12.6851 16.7045 12.0824 17.0388 11.587 17.5031L10.707 18.3831C11.2237 19.6576 11.9885 20.8166 12.957 21.793L13.197 22.0031C13.357 22.1531 13.527 22.293 13.697 22.433C13.917 22.603 14.1271 22.773 14.3571 22.923L14.437 22.983C14.6396 23.1246 14.8499 23.2549 15.067 23.373L15.217 23.4631L15.817 23.7731L16.0471 23.873C16.2337 23.9597 16.4237 24.0397 16.6171 24.113L16.9271 24.2231L17.457 24.3831L17.8571 24.483L18.327 24.5831C18.5054 24.6195 18.6857 24.6462 18.8671 24.663H19.2371C19.5471 24.663 19.8571 24.663 20.1671 24.663C20.4771 24.663 20.8371 24.663 21.1671 24.663C21.3471 24.663 21.517 24.6131 21.697 24.5931L22.137 24.5231L22.8571 24.353L23.087 24.293C23.3654 24.2113 23.6392 24.1145 23.907 24.0031H23.9971C24.2871 23.8831 24.5771 23.753 24.8671 23.603C25.7371 23.1482 26.5384 22.5725 27.2471 21.8931L27.4271 21.733L28.627 20.5231L31.7971 17.5031Z" fill="currentColor"/>
</svg>
