<svg width="48" height="48" viewBox="0 0 48 48" fill="currentColor" xmlns="http://www.w3.org/2000/svg">
<path d="M22.8463 16.3572L8.30628 30.8972C8.15411 31.067 8.05349 31.2767 8.01618 31.5016C7.97887 31.7266 8.0064 31.9575 8.09559 32.1673C8.18478 32.3772 8.33193 32.5573 8.51978 32.6866C8.70763 32.8158 8.92838 32.8889 9.15626 32.8972H38.2463C38.4742 32.8889 38.695 32.8158 38.8828 32.6866C39.0707 32.5573 39.2178 32.3772 39.307 32.1673C39.3961 31.9575 39.4237 31.7266 39.3864 31.5016C39.3491 31.2767 39.2484 31.067 39.0963 30.8972L24.5463 16.3572C24.4355 16.2441 24.3032 16.1543 24.1573 16.0929C24.0113 16.0316 23.8546 16 23.6963 16C23.538 16 23.3813 16.0316 23.2353 16.0929C23.0893 16.1543 22.9571 16.2441 22.8463 16.3572Z" fill="currentColor"/>
</svg>
