<svg width="48" height="48" viewBox="0 0 48 48" fill="currentColor" xmlns="http://www.w3.org/2000/svg">
<path d="M24.5463 32.55L39.0963 18C39.2522 17.8323 39.3565 17.6232 39.3965 17.3977C39.4366 17.1722 39.4107 16.9399 39.322 16.7288C39.2333 16.5176 39.0857 16.3365 38.8966 16.2073C38.7076 16.078 38.4852 16.006 38.2563 16H9.15626C8.92838 16.0083 8.70763 16.0813 8.51978 16.2106C8.33193 16.3399 8.18478 16.52 8.09559 16.7298C8.0064 16.9397 7.97887 17.1706 8.01618 17.3956C8.05349 17.6205 8.15411 17.8302 8.30628 18L22.8563 32.55C22.9669 32.6616 23.0986 32.7501 23.2436 32.8105C23.3886 32.871 23.5442 32.9021 23.7013 32.9021C23.8584 32.9021 24.014 32.871 24.159 32.8105C24.304 32.7501 24.4356 32.6616 24.5463 32.55Z" fill="currentColor"/>
</svg>
