<svg width="48" height="48" viewBox="0 0 48 48" fill="currentColor" xmlns="http://www.w3.org/2000/svg">
<path d="M42.3021 22.1021H13.5421C13.3142 22.0938 13.0934 22.0207 12.9056 21.8915C12.7177 21.7622 12.5706 21.5821 12.4814 21.3723C12.3922 21.1624 12.3647 20.9315 12.402 20.7065C12.4393 20.4816 12.5399 20.2719 12.6921 20.1021L22.8121 9.98212C22.9236 9.87149 23.0122 9.73985 23.0726 9.59482C23.1331 9.44979 23.1642 9.29423 23.1642 9.13712C23.1642 8.98 23.1331 8.82441 23.0726 8.67938C23.0122 8.53435 22.9236 8.40274 22.8121 8.29211L21.8721 7.35211C21.7614 7.24054 21.6298 7.15199 21.4848 7.09155C21.3398 7.03112 21.1842 7 21.0271 7C20.87 7 20.7144 7.03112 20.5693 7.09155C20.4243 7.15199 20.2927 7.24054 20.1821 7.35211L4.35205 23.1821C4.24048 23.2927 4.15192 23.4244 4.09149 23.5694C4.03106 23.7144 4 23.87 4 24.0271C4 24.1842 4.03106 24.3398 4.09149 24.4848C4.15192 24.6298 4.24048 24.7615 4.35205 24.8721L20.1821 40.6621C20.2927 40.7737 20.4243 40.8622 20.5693 40.9227C20.7144 40.9831 20.87 41.0142 21.0271 41.0142C21.1842 41.0142 21.3398 40.9831 21.4848 40.9227C21.6298 40.8622 21.7614 40.7737 21.8721 40.6621L22.8121 39.7121C22.9236 39.6015 23.0122 39.4699 23.0726 39.3248C23.1331 39.1798 23.1642 39.0242 23.1642 38.8671C23.1642 38.71 23.1331 38.5544 23.0726 38.4094C23.0122 38.2644 22.9236 38.1327 22.8121 38.0221L12.6921 27.9121C12.5399 27.7423 12.4393 27.5326 12.402 27.3077C12.3647 27.0827 12.3922 26.8518 12.4814 26.6419C12.5706 26.4321 12.7177 26.252 12.9056 26.1227C13.0934 25.9935 13.3142 25.9204 13.5421 25.9121H42.3021C42.6203 25.9121 42.9255 25.7857 43.1506 25.5606C43.3756 25.3356 43.5021 25.0304 43.5021 24.7121V23.3821C43.513 23.2179 43.4901 23.0532 43.4348 22.8983C43.3794 22.7433 43.2927 22.6014 43.1802 22.4814C43.0676 22.3613 42.9316 22.2657 42.7806 22.2005C42.6295 22.1352 42.4666 22.1017 42.3021 22.1021Z" fill="currentColor"/>
</svg>
