<svg width="48" height="48" viewBox="0 0 48 48" fill="currentColor" xmlns="http://www.w3.org/2000/svg">
<path d="M22.1021 5.69794L22.1021 34.458C22.0938 34.6858 22.0207 34.9066 21.8915 35.0944C21.7622 35.2823 21.5821 35.4294 21.3723 35.5186C21.1624 35.6078 20.9315 35.6353 20.7065 35.598C20.4816 35.5607 20.2719 35.4601 20.1021 35.3079L9.98212 25.1879C9.87149 25.0764 9.73985 24.9878 9.59482 24.9274C9.44979 24.8669 9.29423 24.8358 9.13711 24.8358C8.98 24.8358 8.82441 24.8669 8.67938 24.9274C8.53435 24.9878 8.40274 25.0764 8.29211 25.1879L7.35211 26.1279C7.24054 26.2386 7.15198 26.3702 7.09155 26.5152C7.03112 26.6602 7 26.8158 7 26.9729C7 27.13 7.03112 27.2856 7.09155 27.4307C7.15198 27.5757 7.24054 27.7073 7.35211 27.8179L23.1821 43.648C23.2927 43.7595 23.4244 43.8481 23.5694 43.9085C23.7144 43.9689 23.87 44 24.0271 44C24.1842 44 24.3398 43.9689 24.4848 43.9085C24.6298 43.8481 24.7615 43.7595 24.8721 43.648L40.6621 27.8179C40.7737 27.7073 40.8622 27.5757 40.9227 27.4307C40.9831 27.2856 41.0142 27.13 41.0142 26.9729C41.0142 26.8158 40.9831 26.6602 40.9227 26.5152C40.8622 26.3702 40.7737 26.2386 40.6621 26.1279L39.7121 25.1879C39.6015 25.0764 39.4699 24.9878 39.3248 24.9274C39.1798 24.8669 39.0242 24.8358 38.8671 24.8358C38.71 24.8358 38.5544 24.8669 38.4094 24.9274C38.2644 24.9878 38.1327 25.0764 38.0221 25.1879L27.9121 35.3079C27.7423 35.4601 27.5326 35.5607 27.3077 35.598C27.0827 35.6353 26.8518 35.6078 26.6419 35.5186C26.4321 35.4294 26.252 35.2823 26.1227 35.0944C25.9935 34.9066 25.9204 34.6858 25.9121 34.458L25.9121 5.69794C25.9121 5.37968 25.7857 5.07448 25.5606 4.84943C25.3356 4.62439 25.0304 4.49793 24.7121 4.49793L23.3821 4.49793C23.2179 4.48696 23.0532 4.50988 22.8983 4.56525C22.7433 4.62063 22.6014 4.70729 22.4814 4.81983C22.3613 4.93237 22.2657 5.06837 22.2005 5.21943C22.1352 5.37049 22.1017 5.53339 22.1021 5.69794Z" fill="currentColor"/>
</svg>
