<svg width="24" height="20" viewBox="0 0 24 20" fill="none" xmlns="http://www.w3.org/2000/svg">
<path d="M22.6759 8.89257H5.89921C5.76628 8.88773 5.63751 8.84511 5.52793 8.76971C5.41835 8.69431 5.33251 8.58924 5.28048 8.46682C5.22846 8.34441 5.2124 8.20971 5.23416 8.07849C5.25593 7.94727 5.31462 7.82497 5.40339 7.72591L11.3067 1.82258C11.3718 1.75804 11.4235 1.68125 11.4587 1.59665C11.494 1.51205 11.5121 1.42131 11.5121 1.32966C11.5121 1.23801 11.494 1.14725 11.4587 1.06265C11.4235 0.978046 11.3718 0.901275 11.3067 0.836741L10.7584 0.288406C10.6938 0.223326 10.6171 0.171666 10.5325 0.136414C10.4479 0.101161 10.3571 0.0830078 10.2655 0.0830078C10.1738 0.0830078 10.0831 0.101161 9.99845 0.136414C9.91385 0.171666 9.83708 0.223326 9.77255 0.288406L0.538371 9.52257C0.47329 9.5871 0.42163 9.66389 0.386378 9.74849C0.351126 9.83309 0.333008 9.92383 0.333008 10.0155C0.333008 10.1071 0.351126 10.1979 0.386378 10.2825C0.42163 10.3671 0.47329 10.4439 0.538371 10.5084L9.77255 19.7192C9.83708 19.7843 9.91385 19.836 9.99845 19.8712C10.0831 19.9065 10.1738 19.9246 10.2655 19.9246C10.3571 19.9246 10.4479 19.9065 10.5325 19.8712C10.6171 19.836 10.6938 19.7843 10.7584 19.7192L11.3067 19.1651C11.3718 19.1005 11.4235 19.0238 11.4587 18.9392C11.494 18.8546 11.5121 18.7638 11.5121 18.6721C11.5121 18.5805 11.494 18.4898 11.4587 18.4052C11.4235 18.3206 11.3718 18.2438 11.3067 18.1792L5.40339 12.2817C5.31462 12.1827 5.25593 12.0604 5.23416 11.9292C5.2124 11.7979 5.22846 11.6632 5.28048 11.5408C5.33251 11.4184 5.41835 11.3133 5.52793 11.2379C5.63751 11.1625 5.76628 11.1199 5.89921 11.1151H22.6759C22.8615 11.1151 23.0396 11.0413 23.1708 10.91C23.3021 10.7788 23.3759 10.6007 23.3759 10.4151V9.63924C23.3823 9.54347 23.3689 9.4474 23.3366 9.35701C23.3043 9.26662 23.2538 9.18384 23.1881 9.11382C23.1225 9.04379 23.0431 8.98801 22.955 8.94995C22.8669 8.91189 22.7719 8.89236 22.6759 8.89257Z" fill="#757575"/>
</svg>
