<svg width="48" height="48" viewBox="0 0 48 48" fill="currentColor" xmlns="http://www.w3.org/2000/svg">
<path d="M7.75 9C8.44036 9 9 8.44036 9 7.75C9 7.05964 8.44036 6.5 7.75 6.5C7.05964 6.5 6.5 7.05964 6.5 7.75C6.5 8.44036 7.05964 9 7.75 9Z" fill="currentColor"/>
<path d="M13.17 9C13.8604 9 14.42 8.44036 14.42 7.75C14.42 7.05964 13.8604 6.5 13.17 6.5C12.4796 6.5 11.92 7.05964 11.92 7.75C11.92 8.44036 12.4796 9 13.17 9Z" fill="currentColor"/>
<path d="M18.58 9C19.2704 9 19.83 8.44036 19.83 7.75C19.83 7.05964 19.2704 6.5 18.58 6.5C17.8896 6.5 17.33 7.05964 17.33 7.75C17.33 8.44036 17.8896 9 18.58 9Z" fill="currentColor"/>
<path d="M24 9C24.6904 9 25.25 8.44036 25.25 7.75C25.25 7.05964 24.6904 6.5 24 6.5C23.3096 6.5 22.75 7.05964 22.75 7.75C22.75 8.44036 23.3096 9 24 9Z" fill="currentColor"/>
<path d="M29.42 9C30.1104 9 30.67 8.44036 30.67 7.75C30.67 7.05964 30.1104 6.5 29.42 6.5C28.7296 6.5 28.17 7.05964 28.17 7.75C28.17 8.44036 28.7296 9 29.42 9Z" fill="currentColor"/>
<path d="M34.83 9C35.5204 9 36.08 8.44036 36.08 7.75C36.08 7.05964 35.5204 6.5 34.83 6.5C34.1396 6.5 33.58 7.05964 33.58 7.75C33.58 8.44036 34.1396 9 34.83 9Z" fill="currentColor"/>
<path d="M40.25 9C40.9404 9 41.5 8.44036 41.5 7.75C41.5 7.05964 40.9404 6.5 40.25 6.5C39.5596 6.5 39 7.05964 39 7.75C39 8.44036 39.5596 9 40.25 9Z" fill="currentColor"/>
<path d="M7.75 14.42C8.44036 14.42 9 13.8604 9 13.17C9 12.4796 8.44036 11.92 7.75 11.92C7.05964 11.92 6.5 12.4796 6.5 13.17C6.5 13.8604 7.05964 14.42 7.75 14.42Z" fill="currentColor"/>
<path d="M13.17 14.42C13.8604 14.42 14.42 13.8604 14.42 13.17C14.42 12.4796 13.8604 11.92 13.17 11.92C12.4796 11.92 11.92 12.4796 11.92 13.17C11.92 13.8604 12.4796 14.42 13.17 14.42Z" fill="currentColor"/>
<path d="M18.58 14.42C19.2704 14.42 19.83 13.8604 19.83 13.17C19.83 12.4796 19.2704 11.92 18.58 11.92C17.8896 11.92 17.33 12.4796 17.33 13.17C17.33 13.8604 17.8896 14.42 18.58 14.42Z" fill="currentColor"/>
<path d="M24 14.42C24.6904 14.42 25.25 13.8604 25.25 13.17C25.25 12.4796 24.6904 11.92 24 11.92C23.3096 11.92 22.75 12.4796 22.75 13.17C22.75 13.8604 23.3096 14.42 24 14.42Z" fill="currentColor"/>
<path d="M29.42 14.42C30.1104 14.42 30.67 13.8604 30.67 13.17C30.67 12.4796 30.1104 11.92 29.42 11.92C28.7296 11.92 28.17 12.4796 28.17 13.17C28.17 13.8604 28.7296 14.42 29.42 14.42Z" fill="currentColor"/>
<path d="M34.83 14.42C35.5204 14.42 36.08 13.8604 36.08 13.17C36.08 12.4796 35.5204 11.92 34.83 11.92C34.1396 11.92 33.58 12.4796 33.58 13.17C33.58 13.8604 34.1396 14.42 34.83 14.42Z" fill="currentColor"/>
<path d="M40.25 14.42C40.9404 14.42 41.5 13.8604 41.5 13.17C41.5 12.4796 40.9404 11.92 40.25 11.92C39.5596 11.92 39 12.4796 39 13.17C39 13.8604 39.5596 14.42 40.25 14.42Z" fill="currentColor"/>
<path d="M7.75 19.83C8.44036 19.83 9 19.2704 9 18.58C9 17.8896 8.44036 17.33 7.75 17.33C7.05964 17.33 6.5 17.8896 6.5 18.58C6.5 19.2704 7.05964 19.83 7.75 19.83Z" fill="currentColor"/>
<path d="M13.17 19.83C13.8604 19.83 14.42 19.2704 14.42 18.58C14.42 17.8896 13.8604 17.33 13.17 17.33C12.4796 17.33 11.92 17.8896 11.92 18.58C11.92 19.2704 12.4796 19.83 13.17 19.83Z" fill="currentColor"/>
<path d="M34.83 19.83C35.5204 19.83 36.08 19.2704 36.08 18.58C36.08 17.8896 35.5204 17.33 34.83 17.33C34.1396 17.33 33.58 17.8896 33.58 18.58C33.58 19.2704 34.1396 19.83 34.83 19.83Z" fill="currentColor"/>
<path d="M40.25 19.83C40.9404 19.83 41.5 19.2704 41.5 18.58C41.5 17.8896 40.9404 17.33 40.25 17.33C39.5596 17.33 39 17.8896 39 18.58C39 19.2704 39.5596 19.83 40.25 19.83Z" fill="currentColor"/>
<path d="M7.75 25.25C8.44036 25.25 9 24.6904 9 24C9 23.3096 8.44036 22.75 7.75 22.75C7.05964 22.75 6.5 23.3096 6.5 24C6.5 24.6904 7.05964 25.25 7.75 25.25Z" fill="currentColor"/>
<path d="M13.17 25.25C13.8604 25.25 14.42 24.6904 14.42 24C14.42 23.3096 13.8604 22.75 13.17 22.75C12.4796 22.75 11.92 23.3096 11.92 24C11.92 24.6904 12.4796 25.25 13.17 25.25Z" fill="currentColor"/>
<path d="M34.83 25.25C35.5204 25.25 36.08 24.6904 36.08 24C36.08 23.3096 35.5204 22.75 34.83 22.75C34.1396 22.75 33.58 23.3096 33.58 24C33.58 24.6904 34.1396 25.25 34.83 25.25Z" fill="currentColor"/>
<path d="M40.25 25.25C40.9404 25.25 41.5 24.6904 41.5 24C41.5 23.3096 40.9404 22.75 40.25 22.75C39.5596 22.75 39 23.3096 39 24C39 24.6904 39.5596 25.25 40.25 25.25Z" fill="currentColor"/>
<path d="M7.75 30.67C8.44036 30.67 9 30.1104 9 29.42C9 28.7296 8.44036 28.17 7.75 28.17C7.05964 28.17 6.5 28.7296 6.5 29.42C6.5 30.1104 7.05964 30.67 7.75 30.67Z" fill="currentColor"/>
<path d="M13.17 30.67C13.8604 30.67 14.42 30.1104 14.42 29.42C14.42 28.7296 13.8604 28.17 13.17 28.17C12.4796 28.17 11.92 28.7296 11.92 29.42C11.92 30.1104 12.4796 30.67 13.17 30.67Z" fill="currentColor"/>
<path d="M34.83 30.67C35.5204 30.67 36.08 30.1104 36.08 29.42C36.08 28.7296 35.5204 28.17 34.83 28.17C34.1396 28.17 33.58 28.7296 33.58 29.42C33.58 30.1104 34.1396 30.67 34.83 30.67Z" fill="currentColor"/>
<path d="M40.25 30.67C40.9404 30.67 41.5 30.1104 41.5 29.42C41.5 28.7296 40.9404 28.17 40.25 28.17C39.5596 28.17 39 28.7296 39 29.42C39 30.1104 39.5596 30.67 40.25 30.67Z" fill="currentColor"/>
<path d="M7.75 36.08C8.44036 36.08 9 35.5204 9 34.83C9 34.1396 8.44036 33.58 7.75 33.58C7.05964 33.58 6.5 34.1396 6.5 34.83C6.5 35.5204 7.05964 36.08 7.75 36.08Z" fill="currentColor"/>
<path d="M13.17 36.08C13.8604 36.08 14.42 35.5204 14.42 34.83C14.42 34.1396 13.8604 33.58 13.17 33.58C12.4796 33.58 11.92 34.1396 11.92 34.83C11.92 35.5204 12.4796 36.08 13.17 36.08Z" fill="currentColor"/>
<path d="M18.58 36.08C19.2704 36.08 19.83 35.5204 19.83 34.83C19.83 34.1396 19.2704 33.58 18.58 33.58C17.8896 33.58 17.33 34.1396 17.33 34.83C17.33 35.5204 17.8896 36.08 18.58 36.08Z" fill="currentColor"/>
<path d="M24 36.08C24.6904 36.08 25.25 35.5204 25.25 34.83C25.25 34.1396 24.6904 33.58 24 33.58C23.3096 33.58 22.75 34.1396 22.75 34.83C22.75 35.5204 23.3096 36.08 24 36.08Z" fill="currentColor"/>
<path d="M29.42 36.08C30.1104 36.08 30.67 35.5204 30.67 34.83C30.67 34.1396 30.1104 33.58 29.42 33.58C28.7296 33.58 28.17 34.1396 28.17 34.83C28.17 35.5204 28.7296 36.08 29.42 36.08Z" fill="currentColor"/>
<path d="M34.83 36.08C35.5204 36.08 36.08 35.5204 36.08 34.83C36.08 34.1396 35.5204 33.58 34.83 33.58C34.1396 33.58 33.58 34.1396 33.58 34.83C33.58 35.5204 34.1396 36.08 34.83 36.08Z" fill="currentColor"/>
<path d="M40.25 36.08C40.9404 36.08 41.5 35.5204 41.5 34.83C41.5 34.1396 40.9404 33.58 40.25 33.58C39.5596 33.58 39 34.1396 39 34.83C39 35.5204 39.5596 36.08 40.25 36.08Z" fill="currentColor"/>
<path d="M7.75 41.5C8.44036 41.5 9 40.9404 9 40.25C9 39.5596 8.44036 39 7.75 39C7.05964 39 6.5 39.5596 6.5 40.25C6.5 40.9404 7.05964 41.5 7.75 41.5Z" fill="currentColor"/>
<path d="M13.17 41.5C13.8604 41.5 14.42 40.9404 14.42 40.25C14.42 39.5596 13.8604 39 13.17 39C12.4796 39 11.92 39.5596 11.92 40.25C11.92 40.9404 12.4796 41.5 13.17 41.5Z" fill="currentColor"/>
<path d="M18.58 41.5C19.2704 41.5 19.83 40.9404 19.83 40.25C19.83 39.5596 19.2704 39 18.58 39C17.8896 39 17.33 39.5596 17.33 40.25C17.33 40.9404 17.8896 41.5 18.58 41.5Z" fill="currentColor"/>
<path d="M24 41.5C24.6904 41.5 25.25 40.9404 25.25 40.25C25.25 39.5596 24.6904 39 24 39C23.3096 39 22.75 39.5596 22.75 40.25C22.75 40.9404 23.3096 41.5 24 41.5Z" fill="currentColor"/>
<path d="M29.42 41.5C30.1104 41.5 30.67 40.9404 30.67 40.25C30.67 39.5596 30.1104 39 29.42 39C28.7296 39 28.17 39.5596 28.17 40.25C28.17 40.9404 28.7296 41.5 29.42 41.5Z" fill="currentColor"/>
<path d="M34.83 41.5C35.5204 41.5 36.08 40.9404 36.08 40.25C36.08 39.5596 35.5204 39 34.83 39C34.1396 39 33.58 39.5596 33.58 40.25C33.58 40.9404 34.1396 41.5 34.83 41.5Z" fill="currentColor"/>
<path d="M40.25 41.5C40.9404 41.5 41.5 40.9404 41.5 40.25C41.5 39.5596 40.9404 39 40.25 39C39.5596 39 39 39.5596 39 40.25C39 40.9404 39.5596 41.5 40.25 41.5Z" fill="currentColor"/>
<path fill-rule="evenodd" clip-rule="evenodd" d="M23.99 25.25C24.9789 25.25 25.9456 24.9568 26.7678 24.4073C27.5901 23.8579 28.2309 23.0771 28.6094 22.1634C28.9878 21.2498 29.0868 20.2444 28.8939 19.2745C28.701 18.3046 28.2248 17.4137 27.5255 16.7145C26.8263 16.0152 25.9354 15.539 24.9655 15.3461C23.9955 15.1531 22.9902 15.2522 22.0766 15.6306C21.163 16.0091 20.382 16.6499 19.8326 17.4721C19.2832 18.2944 18.99 19.2611 18.99 20.25C18.99 20.9083 19.12 21.5601 19.3725 22.1681C19.625 22.776 19.9951 23.3281 20.4615 23.7926C20.928 24.2572 21.4815 24.6251 22.0905 24.8752C22.6994 25.1252 23.3517 25.2526 24.01 25.25H23.99Z" fill="currentColor"/>
<path fill-rule="evenodd" clip-rule="evenodd" d="M28.5 25.28C28.3922 25.1981 28.2604 25.1537 28.125 25.1537C27.9896 25.1537 27.8579 25.1981 27.75 25.28C26.6685 26.0994 25.3468 26.5388 23.99 26.53C22.6409 26.5293 21.3284 26.0906 20.25 25.28C20.1422 25.1981 20.0104 25.1537 19.875 25.1537C19.7396 25.1537 19.6079 25.1981 19.5 25.28C18.5504 26.0742 17.7888 27.0691 17.27 28.1931C16.7513 29.3171 16.4883 30.5421 16.5 31.78C16.5 31.91 16.5 32.04 16.5 32.17C16.5052 32.3257 16.5707 32.4732 16.6827 32.5814C16.7947 32.6896 16.9443 32.7501 17.1 32.75H30.88C31.0357 32.7501 31.1854 32.6896 31.2974 32.5814C31.4093 32.4732 31.4748 32.3257 31.48 32.17C31.48 32.04 31.48 31.91 31.48 31.78C31.4942 30.5437 31.2343 29.3197 30.7191 28.1958C30.2038 27.0719 29.446 26.0761 28.5 25.28V25.28Z" fill="currentColor"/>
</svg>
