<svg xmlns="http://www.w3.org/2000/svg" width="40" height="40" viewBox="0 0 40 40">
  <path id="Path_2" data-name="Path 2" d="M25.264.7A19.978,19.978,0,1,0,39.3,14.733q-.063.03-.128.057a2.74,2.74,0,0,1-2.99-.595l0,0L33.5,11.512l-2.679,2.681,0,0a2.74,2.74,0,0,1-3.88,0v0l-1.13-1.131h0a2.741,2.741,0,0,1,0-3.879l0,0L28.484,6.5,25.8,3.811A2.741,2.741,0,0,1,25.209.822Q25.235.76,25.264.7Zm13.39,12.072A20.064,20.064,0,0,0,27.222,1.344l0,0a.741.741,0,0,0,0,1.05l3.048,3.056a1.476,1.476,0,0,1,0,2.093L27.218,10.6a.741.741,0,0,0,0,1.05l1.135,1.136a.74.74,0,0,0,1.049,0l3.572-3.575a.74.74,0,0,1,1.049,0L37.6,12.782a.74.74,0,0,0,1.049,0Z" fill="#cbcbcb" fill-rule="evenodd"/>
</svg>
