<svg width="13" height="13" viewBox="0 0 13 13" fill="none" xmlns="http://www.w3.org/2000/svg">
<path d="M12.7791 1.33541L11.6438 0.217904C11.5751 0.148834 11.4934 0.0940322 11.4034 0.0566381C11.3134 0.0192441 11.2169 0 11.1194 0C11.022 0 10.9255 0.0192441 10.8355 0.0566381C10.7455 0.0940322 10.6638 0.148834 10.595 0.217904L7.51023 3.26789C7.3732 3.40584 7.21026 3.51532 7.0308 3.59002C6.85133 3.66473 6.65886 3.70319 6.46448 3.70319C6.27011 3.70319 6.07764 3.66473 5.89817 3.59002C5.7187 3.51532 5.55577 3.40584 5.41873 3.26789L2.40179 0.217904C2.33301 0.148834 2.25127 0.0940322 2.16128 0.0566381C2.07129 0.0192441 1.97483 0 1.87739 0C1.77995 0 1.68345 0.0192441 1.59346 0.0566381C1.50347 0.0940322 1.42173 0.148834 1.35295 0.217904L0.217766 1.34775C0.148745 1.41658 0.0939644 1.49837 0.0565973 1.58843C0.0192302 1.67849 0 1.77503 0 1.87254C0 1.97006 0.0192302 2.0666 0.0565973 2.15666C0.0939644 2.24671 0.148745 2.32851 0.217766 2.39734L3.26555 5.4535C3.4034 5.59064 3.51278 5.75369 3.58743 5.93329C3.66209 6.11289 3.70052 6.30547 3.70052 6.49999C3.70052 6.69451 3.66209 6.88711 3.58743 7.06671C3.51278 7.24631 3.4034 7.40936 3.26555 7.5465L0.217766 10.5965C0.148745 10.6653 0.0939644 10.7471 0.0565973 10.8372C0.0192302 10.9272 0 11.0238 0 11.1213C0 11.2188 0.0192302 11.3153 0.0565973 11.4054C0.0939644 11.4954 0.148745 11.5772 0.217766 11.6461L1.35295 12.7821C1.42173 12.8512 1.50347 12.906 1.59346 12.9434C1.68345 12.9808 1.77995 13 1.87739 13C1.97483 13 2.07129 12.9808 2.16128 12.9434C2.25127 12.906 2.33301 12.8512 2.40179 12.7821L5.97397 9.20732C6.04275 9.13825 6.12449 9.08344 6.21448 9.04605C6.30447 9.00866 6.40097 8.98941 6.49841 8.98941C6.59585 8.98941 6.69235 9.00866 6.78234 9.04605C6.87233 9.08344 6.95403 9.13825 7.02281 9.20732L10.595 12.7821C10.6638 12.8512 10.7455 12.906 10.8355 12.9434C10.9255 12.9808 11.022 13 11.1194 13C11.2169 13 11.3134 12.9808 11.4034 12.9434C11.4934 12.906 11.5751 12.8512 11.6438 12.7821L12.7729 11.6461C12.8419 11.5772 12.8967 11.4954 12.9341 11.4054C12.9714 11.3153 12.9906 11.2188 12.9906 11.1213C12.9906 11.0238 12.9714 10.9272 12.9341 10.8372C12.8967 10.7471 12.8419 10.6653 12.7729 10.5965L9.7251 7.5465C9.58725 7.40936 9.47786 7.24631 9.40321 7.06671C9.32856 6.88711 9.29013 6.69451 9.29013 6.49999C9.29013 6.30547 9.32856 6.11289 9.40321 5.93329C9.47786 5.75369 9.58725 5.59064 9.7251 5.4535L12.7729 2.39734C12.8442 2.32872 12.901 2.24648 12.94 2.15551C12.979 2.06454 12.9994 1.96668 13 1.86768C13.0006 1.76869 12.9813 1.67058 12.9434 1.57916C12.9054 1.48774 12.8496 1.40486 12.7791 1.33541Z" fill="#E75140"/>
</svg>
