<svg width="48" height="48" viewBox="0 0 48 48" fill="currentColor" xmlns="http://www.w3.org/2000/svg">
<path d="M35.3638 11.363L20.8738 25.843C20.7621 25.9564 20.629 26.0464 20.4822 26.1079C20.3355 26.1694 20.1779 26.201 20.0188 26.201C19.8597 26.201 19.7021 26.1694 19.5554 26.1079C19.4086 26.0464 19.2755 25.9564 19.1638 25.843L12.6538 19.343C12.4269 19.1165 12.1194 18.9892 11.7988 18.9892C11.4782 18.9892 11.1707 19.1165 10.9438 19.343L7.35382 22.923C7.12727 23.1499 7 23.4574 7 23.778C7 24.0986 7.12727 24.4062 7.35382 24.633L14.7138 31.993L19.1638 36.443C19.3907 36.6696 19.6982 36.7968 20.0188 36.7968C20.3394 36.7968 20.6469 36.6696 20.8738 36.443L40.6638 16.653C40.8904 16.4261 41.0176 16.1186 41.0176 15.798C41.0176 15.4774 40.8904 15.1699 40.6638 14.943L37.0738 11.353C36.9615 11.2403 36.8279 11.151 36.6807 11.0904C36.5336 11.0298 36.3759 10.9991 36.2167 11C36.0576 11.001 35.9002 11.0335 35.7538 11.0958C35.6074 11.1582 35.4748 11.249 35.3638 11.363Z" fill="currentColor"/>
</svg>
