<svg width="48" height="48" viewBox="0 0 48 48" fill="currentColor" xmlns="http://www.w3.org/2000/svg">
<path d="M40.3044 29.75L38.1444 28.44C37.93 28.3067 37.7628 28.1097 37.6659 27.8766C37.5691 27.6435 37.5476 27.3859 37.6044 27.14C37.9644 25.3917 37.9644 23.5883 37.6044 21.84C37.5476 21.5941 37.5691 21.3365 37.6659 21.1034C37.7628 20.8703 37.93 20.6733 38.1444 20.54L40.3044 19.22C40.4404 19.138 40.5588 19.0297 40.6526 18.9016C40.7465 18.7735 40.814 18.628 40.8512 18.4736C40.8884 18.3192 40.8946 18.1589 40.8694 18.0021C40.8442 17.8453 40.7881 17.695 40.7044 17.56L38.0644 13.22C37.9824 13.084 37.8741 12.9656 37.746 12.8718C37.6179 12.7779 37.4724 12.7104 37.318 12.6732C37.1635 12.636 37.0033 12.6298 36.8465 12.655C36.6896 12.6802 36.5394 12.7363 36.4044 12.82L34.2444 14.13C34.0262 14.2576 33.7742 14.3154 33.5222 14.2957C33.2702 14.2761 33.0302 14.1799 32.8344 14.02C31.6935 13.1009 30.4099 12.3746 29.0344 11.87C28.794 11.7866 28.5847 11.6318 28.4346 11.4263C28.2845 11.2208 28.2007 10.9744 28.1944 10.72V8.21001C28.1944 7.88909 28.0669 7.58132 27.84 7.3544C27.6131 7.12748 27.3053 7 26.9844 7H21.9044C21.5835 7 21.2757 7.12748 21.0488 7.3544C20.8219 7.58132 20.6944 7.88909 20.6944 8.21001V10.72C20.6903 10.9736 20.6085 11.2198 20.4601 11.4254C20.3116 11.631 20.1038 11.7862 19.8644 11.87C18.4859 12.3746 17.199 13.1008 16.0544 14.02C15.8608 14.1803 15.6224 14.2769 15.3718 14.2966C15.1212 14.3163 14.8707 14.2581 14.6544 14.13L12.4844 12.82C12.2095 12.6531 11.8799 12.6015 11.5671 12.6764C11.2544 12.7513 10.9839 12.9467 10.8144 13.22L8.17441 17.56C8.0089 17.8346 7.95911 18.1636 8.03599 18.4748C8.11286 18.7861 8.31008 19.0541 8.58439 19.22L10.7344 20.54C10.9495 20.673 11.118 20.8695 11.2165 21.1024C11.3151 21.3353 11.3388 21.593 11.2844 21.84C10.9111 23.5869 10.9111 25.3931 11.2844 27.14C11.3388 27.387 11.3151 27.6447 11.2165 27.8776C11.118 28.1105 10.9495 28.307 10.7344 28.44L8.58439 29.75C8.3094 29.9178 8.112 30.1876 8.03519 30.5005C7.95838 30.8134 8.00842 31.1439 8.17441 31.42L10.8144 35.75C10.8966 35.8872 11.0051 36.0067 11.1338 36.1017C11.2624 36.1966 11.4086 36.2652 11.5639 36.3033C11.7192 36.3414 11.8805 36.3484 12.0385 36.3238C12.1965 36.2992 12.3481 36.2435 12.4844 36.16L14.6444 34.84C14.8612 34.7118 15.1127 34.6545 15.3636 34.676C15.6146 34.6975 15.8526 34.7968 16.0444 34.96C17.1869 35.8798 18.4745 36.603 19.8544 37.1C20.0953 37.1844 20.3044 37.3411 20.4529 37.5487C20.6015 37.7563 20.6823 38.0047 20.6844 38.26V40.77C20.6844 41.0909 20.8119 41.3987 21.0388 41.6256C21.2657 41.8525 21.5735 41.98 21.8944 41.98H26.9744C27.2953 41.98 27.6031 41.8525 27.83 41.6256C28.0569 41.3987 28.1844 41.0909 28.1844 40.77V38.3C28.1887 38.0439 28.2715 37.7952 28.4218 37.5878C28.572 37.3803 28.7824 37.224 29.0244 37.14C30.4012 36.6428 31.6855 35.9196 32.8244 35C33.0178 34.8359 33.2575 34.7362 33.5102 34.7147C33.7629 34.6932 34.0161 34.751 34.2344 34.88L36.3944 36.2C36.53 36.2833 36.6808 36.3388 36.838 36.3632C36.9952 36.3877 37.1557 36.3807 37.3102 36.3425C37.4647 36.3043 37.6101 36.2358 37.7378 36.141C37.8656 36.0461 37.9732 35.9268 38.0544 35.79L40.6944 31.46C40.7838 31.3229 40.8447 31.1693 40.8734 31.0082C40.9022 30.8471 40.8984 30.6819 40.862 30.5223C40.8256 30.3628 40.7574 30.2122 40.6617 30.0795C40.5659 29.9468 40.4444 29.8348 40.3044 29.75ZM24.4844 30.3C23.3329 30.3 22.2073 29.9584 21.25 29.3185C20.2927 28.6785 19.5467 27.769 19.1065 26.7049C18.6663 25.6409 18.5516 24.4701 18.777 23.3409C19.0024 22.2117 19.5577 21.1746 20.3726 20.3611C21.1875 19.5476 22.2255 18.9941 23.3551 18.7706C24.4848 18.5472 25.6553 18.6639 26.7185 19.1059C27.7818 19.5479 28.6901 20.2955 29.3284 21.2539C29.9667 22.2123 30.3064 23.3385 30.3044 24.49C30.3018 26.0318 29.6874 27.5096 28.5962 28.5989C27.5051 29.6882 26.0262 30.3 24.4844 30.3Z" fill="currentColor"/>
</svg>
