<svg width="48" height="48" viewBox="0 0 48 48" fill="currentColor" xmlns="http://www.w3.org/2000/svg">
<path fill-rule="evenodd" clip-rule="evenodd" d="M41 23.01C41 26.58 39.06 29.8301 35.93 32.1801C32.3088 34.7694 27.9511 36.1262 23.5 36.0501C13.83 36.0501 6 30.2101 6 23.05C6 15.89 13.83 10 23.5 10C33.17 10 41 15.8 41 23.01Z" fill="currentColor"/>
<path fill-rule="evenodd" clip-rule="evenodd" d="M16.1199 30.67C15.1131 33.0398 13.7655 35.2498 12.1199 37.23C12.039 37.3303 11.9888 37.4518 11.9752 37.58C11.9616 37.7081 11.9852 37.8374 12.0432 37.9525C12.1013 38.0675 12.1913 38.1634 12.3025 38.2286C12.4136 38.2937 12.5411 38.3255 12.6699 38.32C23.5199 37.74 27.1599 31.32 27.1599 31.32L16.1199 30.67Z" fill="currentColor"/>
</svg>
