<svg width="48" height="48" viewBox="0 0 48 48" fill="currentColor" xmlns="http://www.w3.org/2000/svg">
<path d="M12.3 13.5H7.20001C6.88175 13.5 6.57651 13.6264 6.35147 13.8515C6.12643 14.0765 6 14.3817 6 14.7V17.29C5.99999 17.6092 6.1261 17.9155 6.35086 18.1421C6.57562 18.3687 6.88084 18.4974 7.20001 18.5H17.3C17.6192 18.4974 17.9244 18.3687 18.1491 18.1421C18.3739 17.9155 18.5 17.6092 18.5 17.29V7.2C18.5 6.88174 18.3736 6.57651 18.1485 6.35147C17.9235 6.12643 17.6182 6 17.3 6H14.7C14.3818 6 14.0765 6.12643 13.8515 6.35147C13.6264 6.57651 13.5 6.88174 13.5 7.2V12.29C13.5 12.6092 13.3739 12.9155 13.1491 13.1421C12.9244 13.3687 12.6192 13.4974 12.3 13.5Z" fill="currentColor"/>
<path d="M33.5 12.29V7.2C33.5 6.88174 33.3736 6.57651 33.1485 6.35147C32.9235 6.12643 32.6182 6 32.3 6H29.7C29.3818 6 29.0765 6.12643 28.8515 6.35147C28.6264 6.57651 28.5 6.88174 28.5 7.2V17.29C28.5 17.6092 28.6261 17.9155 28.8509 18.1421C29.0756 18.3687 29.3808 18.4974 29.7 18.5H39.8C40.1192 18.4974 40.4244 18.3687 40.6491 18.1421C40.8739 17.9155 41 17.6092 41 17.29V14.7C41 14.3817 40.8736 14.0765 40.6485 13.8515C40.4235 13.6264 40.1182 13.5 39.8 13.5H34.7C34.3808 13.4974 34.0756 13.3687 33.8509 13.1421C33.6261 12.9155 33.5 12.6092 33.5 12.29Z" fill="currentColor"/>
<path d="M29.7 28.5C29.3818 28.5 29.0765 28.6264 28.8515 28.8515C28.6264 29.0765 28.5 29.3817 28.5 29.7V39.79C28.5 40.1092 28.6261 40.4155 28.8509 40.6421C29.0756 40.8687 29.3808 40.9974 29.7 41H32.3C32.6192 40.9974 32.9244 40.8687 33.1491 40.6421C33.3739 40.4155 33.5 40.1092 33.5 39.79V34.7C33.5 34.3817 33.6264 34.0765 33.8515 33.8515C34.0765 33.6264 34.3818 33.5 34.7 33.5H39.8C40.1192 33.4974 40.4244 33.3687 40.6491 33.1421C40.8739 32.9155 41 32.6092 41 32.29V29.7C41 29.3817 40.8736 29.0765 40.6485 28.8515C40.4235 28.6264 40.1182 28.5 39.8 28.5H29.7Z" fill="currentColor"/>
<path d="M6 29.7V32.29C5.99999 32.6092 6.1261 32.9155 6.35086 33.1421C6.57562 33.3687 6.88084 33.4974 7.20001 33.5H12.3C12.6182 33.5 12.9235 33.6264 13.1485 33.8515C13.3736 34.0765 13.5 34.3817 13.5 34.7V39.79C13.5 40.1092 13.6261 40.4155 13.8509 40.6421C14.0756 40.8687 14.3808 40.9974 14.7 41H17.3C17.6192 40.9974 17.9244 40.8687 18.1491 40.6421C18.3739 40.4155 18.5 40.1092 18.5 39.79V29.7C18.5 29.3817 18.3736 29.0765 18.1485 28.8515C17.9235 28.6264 17.6182 28.5 17.3 28.5H7.20001C6.88175 28.5 6.57651 28.6264 6.35147 28.8515C6.12643 29.0765 6 29.3817 6 29.7Z" fill="currentColor"/>
</svg>
