<svg width="48" height="48" viewBox="0 0 48 48" fill="currentColor" xmlns="http://www.w3.org/2000/svg">
<path d="M37.713 11.1629L35.8729 9.35294C35.7614 9.24106 35.629 9.1523 35.4832 9.09174C35.3373 9.03117 35.1809 9 35.023 9C34.865 9 34.7086 9.03117 34.5627 9.09174C34.4169 9.1523 34.2845 9.24106 34.173 9.35294L25.173 18.2929C24.9509 18.5164 24.6868 18.6937 24.3959 18.8147C24.105 18.9357 23.793 18.998 23.478 18.998C23.1629 18.998 22.851 18.9357 22.5601 18.8147C22.2692 18.6937 22.0051 18.5164 21.783 18.2929L12.8929 9.35294C12.7815 9.24106 12.649 9.1523 12.5031 9.09174C12.3573 9.03117 12.2009 9 12.043 9C11.885 9 11.7286 9.03117 11.5828 9.09174C11.4369 9.1523 11.3044 9.24106 11.1929 9.35294L9.35297 11.1829C9.24109 11.2944 9.1523 11.4269 9.09174 11.5728C9.03117 11.7186 9 11.875 9 12.0329C9 12.1909 9.03117 12.3472 9.09174 12.4931C9.1523 12.639 9.24109 12.7715 9.35297 12.8829L18.293 21.8329C18.5164 22.0551 18.6937 22.3192 18.8147 22.61C18.9357 22.9009 18.998 23.2129 18.998 23.5279C18.998 23.843 18.9357 24.1549 18.8147 24.4458C18.6937 24.7367 18.5164 25.0008 18.293 25.2229L9.35297 34.1629C9.24109 34.2744 9.1523 34.4069 9.09174 34.5528C9.03117 34.6986 9 34.855 9 35.0129C9 35.1709 9.03117 35.3273 9.09174 35.4731C9.1523 35.619 9.24109 35.7515 9.35297 35.8629L11.1929 37.7029C11.3044 37.8148 11.4369 37.9036 11.5828 37.9641C11.7286 38.0247 11.885 38.0559 12.043 38.0559C12.2009 38.0559 12.3573 38.0247 12.5031 37.9641C12.649 37.9036 12.7815 37.8148 12.8929 37.7029L22.6829 27.9129C22.7944 27.8011 22.9269 27.7123 23.0728 27.6517C23.2186 27.5912 23.375 27.56 23.533 27.56C23.6909 27.56 23.8473 27.5912 23.9932 27.6517C24.139 27.7123 24.2715 27.8011 24.3829 27.9129L34.173 37.7029C34.2845 37.8148 34.4169 37.9036 34.5627 37.9641C34.7086 38.0247 34.865 38.0559 35.023 38.0559C35.1809 38.0559 35.3373 38.0247 35.4832 37.9641C35.629 37.9036 35.7614 37.8148 35.8729 37.7029L37.7029 35.8629C37.8148 35.7515 37.9036 35.619 37.9642 35.4731C38.0247 35.3273 38.0559 35.1709 38.0559 35.0129C38.0559 34.855 38.0247 34.6986 37.9642 34.5528C37.9036 34.4069 37.8148 34.2744 37.7029 34.1629L28.7629 25.2229C28.5395 25.0008 28.3622 24.7367 28.2412 24.4458C28.1202 24.1549 28.0579 23.843 28.0579 23.5279C28.0579 23.2129 28.1202 22.9009 28.2412 22.61C28.3622 22.3192 28.5395 22.0551 28.7629 21.8329L37.7029 12.8829C37.8185 12.7718 37.9107 12.6386 37.9739 12.4912C38.0371 12.3439 38.0701 12.1854 38.071 12.0251C38.072 11.8647 38.0408 11.7058 37.9793 11.5577C37.9177 11.4097 37.8272 11.2754 37.713 11.1629Z" fill="currentColor"/>
</svg>
