<svg width="48" height="48" viewBox="0 0 48 48" fill="currentColor" xmlns="http://www.w3.org/2000/svg">
<path d="M32.3075 18.6463L25.1175 10.4063C25.0048 10.2786 24.8664 10.1763 24.7112 10.1063C24.556 10.0362 24.3877 10 24.2175 10C24.0472 10 23.8789 10.0362 23.7237 10.1063C23.5685 10.1763 23.4301 10.2786 23.3175 10.4063L16.1175 18.6463C15.9364 18.854 15.689 18.9925 15.4173 19.0381C15.1455 19.0836 14.8664 19.0335 14.6275 18.8963L8.7875 15.5563C8.59498 15.4482 8.37635 15.3953 8.15572 15.4034C7.93509 15.4116 7.72097 15.4805 7.53695 15.6024C7.35293 15.7244 7.20611 15.8948 7.11269 16.0949C7.01927 16.2949 6.98288 16.5169 7.00747 16.7363L8.79745 32.0563C8.82941 32.3471 8.96741 32.616 9.18508 32.8115C9.40275 33.0071 9.68484 33.1156 9.97744 33.1163H38.4475C38.7418 33.118 39.0263 33.0107 39.2461 32.8149C39.4659 32.6191 39.6053 32.3488 39.6375 32.0563L41.4174 16.7363C41.4459 16.5158 41.412 16.2917 41.3196 16.0895C41.2272 15.8873 41.08 15.7151 40.8947 15.5922C40.7094 15.4694 40.4935 15.4009 40.2713 15.3946C40.049 15.3882 39.8295 15.4442 39.6375 15.5563L33.8075 18.8963C33.5665 19.0324 33.2862 19.0818 33.0133 19.0363C32.7403 18.9909 32.4912 18.8532 32.3075 18.6463Z" fill="currentColor"/>
<path d="M38.3075 35.3063H10.1175C9.45472 35.3063 8.91748 35.8435 8.91748 36.5063V37.3663C8.91748 38.029 9.45472 38.5663 10.1175 38.5663H38.3075C38.9702 38.5663 39.5075 38.029 39.5075 37.3663V36.5063C39.5075 35.8435 38.9702 35.3063 38.3075 35.3063Z" fill="currentColor"/>
</svg>
