<svg width="48" height="48" viewBox="0 0 48 48" fill="currentColor" xmlns="http://www.w3.org/2000/svg">
<path d="M34.18 31.02V32.02H14.06V20.02H21.72C21.6562 19.5259 21.6228 19.0283 21.62 18.53C21.62 18.19 21.62 17.86 21.62 17.53H12.71C12.3917 17.53 12.0865 17.6564 11.8615 17.8815C11.6364 18.1065 11.51 18.4117 11.51 18.73V33.38C11.51 33.5371 11.5411 33.6927 11.6015 33.8377C11.6619 33.9827 11.7505 34.1144 11.8621 34.225C11.9736 34.3357 12.106 34.4231 12.2515 34.4823C12.3971 34.5415 12.5529 34.5713 12.71 34.57H35.43C35.5871 34.5713 35.7429 34.5415 35.8884 34.4823C36.034 34.4231 36.1663 34.3357 36.2779 34.225C36.3895 34.1144 36.478 33.9827 36.5385 33.8377C36.5989 33.6927 36.63 33.5371 36.63 33.38V30.81C35.8226 30.9629 35.0017 31.0333 34.18 31.02Z" fill="currentColor"/>
<path d="M39.12 29.98V36.98H9.12001V15.08H22.12C22.3659 14.2143 22.701 13.3765 23.12 12.58H7.82002C7.50176 12.58 7.19649 12.7064 6.97145 12.9315C6.74641 13.1565 6.62001 13.4618 6.62001 13.78V38.27C6.62001 38.4276 6.65101 38.5837 6.71132 38.7292C6.77162 38.8748 6.86002 39.0071 6.97145 39.1185C7.08288 39.23 7.2152 39.3184 7.36079 39.3787C7.50638 39.439 7.66244 39.47 7.82002 39.47H40.43C40.5871 39.47 40.7427 39.4389 40.8877 39.3785C41.0327 39.318 41.1644 39.2295 41.275 39.1179C41.3857 39.0064 41.4731 38.874 41.5323 38.7285C41.5915 38.5829 41.6213 38.4271 41.62 38.27V28.51C40.8478 29.0973 40.0086 29.5907 39.12 29.98Z" fill="currentColor"/>
<path fill-rule="evenodd" clip-rule="evenodd" d="M34.12 8.53003C32.1422 8.53003 30.2088 9.11651 28.5643 10.2153C26.9198 11.3141 25.6381 12.8759 24.8812 14.7032C24.1243 16.5304 23.9263 18.5411 24.3122 20.4809C24.698 22.4207 25.6505 24.2025 27.049 25.6011C28.4475 26.9996 30.2293 27.952 32.1691 28.3378C34.1089 28.7237 36.1196 28.5257 37.9469 27.7688C39.7741 27.0119 41.3359 25.7302 42.4347 24.0857C43.5335 22.4412 44.12 20.5078 44.12 18.53C44.12 15.8779 43.0664 13.3343 41.1911 11.4589C39.3157 9.58356 36.7722 8.53003 34.12 8.53003ZM36.31 18.95L39.89 22.52C40.0006 22.6339 40.0625 22.7863 40.0625 22.945C40.0625 23.1037 40.0006 23.2561 39.89 23.37L38.97 24.29C38.915 24.3471 38.849 24.3926 38.776 24.4237C38.7029 24.4548 38.6244 24.4708 38.545 24.4708C38.4657 24.4708 38.3871 24.4548 38.3141 24.4237C38.2411 24.3926 38.1751 24.3471 38.12 24.29L34.55 20.72C34.495 20.6629 34.429 20.6174 34.3559 20.5863C34.2829 20.5552 34.2044 20.5392 34.125 20.5392C34.0457 20.5392 33.9671 20.5552 33.8941 20.5863C33.8211 20.6174 33.7551 20.6629 33.7 20.72L30.13 24.29C30.075 24.3471 30.009 24.3926 29.9359 24.4237C29.8629 24.4548 29.7844 24.4708 29.7051 24.4708C29.6257 24.4708 29.5471 24.4548 29.4741 24.4237C29.4011 24.3926 29.335 24.3471 29.28 24.29L28.36 23.37C28.2494 23.2561 28.1876 23.1037 28.1876 22.945C28.1876 22.7863 28.2494 22.6339 28.36 22.52L31.93 18.95C31.9872 18.895 32.0326 18.8289 32.0637 18.7559C32.0948 18.6829 32.1108 18.6044 32.1108 18.525C32.1108 18.4457 32.0948 18.3671 32.0637 18.2941C32.0326 18.221 31.9872 18.155 31.93 18.1L28.36 14.53C28.3029 14.475 28.2574 14.409 28.2264 14.3359C28.1953 14.2629 28.1792 14.1843 28.1792 14.105C28.1792 14.0256 28.1953 13.9471 28.2264 13.8741C28.2574 13.8011 28.3029 13.735 28.36 13.68L29.28 12.76C29.3938 12.6494 29.5464 12.5876 29.7051 12.5876C29.8638 12.5876 30.0162 12.6494 30.13 12.76L33.7 16.34C33.8139 16.4506 33.9663 16.5124 34.125 16.5124C34.2837 16.5124 34.4362 16.4506 34.55 16.34L38.12 12.76C38.2339 12.6494 38.3863 12.5876 38.545 12.5876C38.7037 12.5876 38.8562 12.6494 38.97 12.76L39.89 13.68C40.0006 13.7938 40.0625 13.9463 40.0625 14.105C40.0625 14.2637 40.0006 14.4162 39.89 14.53L36.31 18.1C36.1995 18.2138 36.1376 18.3663 36.1376 18.525C36.1376 18.6837 36.1995 18.8362 36.31 18.95Z" fill="currentColor"/>
</svg>
