<svg width="48" height="48" viewBox="0 0 48 48" fill="currentColor" xmlns="http://www.w3.org/2000/svg">
<path d="M4 7.20001V31.69C4 31.8476 4.03106 32.0036 4.09137 32.1492C4.15168 32.2948 4.24007 32.4271 4.3515 32.5385C4.46293 32.6499 4.59519 32.7383 4.74078 32.7986C4.88637 32.859 5.04243 32.89 5.20001 32.89H42.8C42.9576 32.89 43.1136 32.859 43.2592 32.7986C43.4048 32.7383 43.5371 32.6499 43.6486 32.5385C43.76 32.4271 43.8484 32.2948 43.9087 32.1492C43.969 32.0036 44 31.8476 44 31.69V7.20001C44 6.88175 43.8736 6.57651 43.6486 6.35147C43.4235 6.12643 43.1182 6 42.8 6H5.20001C4.88175 6 4.57655 6.12643 4.3515 6.35147C4.12646 6.57651 4 6.88175 4 7.20001ZM9 26.69V12.2C9 11.8818 9.12646 11.5765 9.3515 11.3515C9.57655 11.1264 9.88175 11 10.2 11H37.8C38.1182 11 38.4235 11.1264 38.6486 11.3515C38.8736 11.5765 39 11.8818 39 12.2V26.69C39 27.0083 38.8736 27.3135 38.6486 27.5385C38.4235 27.7636 38.1182 27.89 37.8 27.89H10.2C9.88175 27.89 9.57655 27.7636 9.3515 27.5385C9.12646 27.3135 9 27.0083 9 26.69Z" fill="currentColor"/>
<path d="M17.5799 36.67L16.2699 39.27C16.1797 39.4532 16.1377 39.6564 16.148 39.8604C16.1583 40.0643 16.2204 40.2623 16.3285 40.4355C16.4367 40.6087 16.5873 40.7514 16.766 40.8502C16.9447 40.949 17.1457 41.0006 17.3499 41H30.6499C30.8543 41.0016 31.0557 40.9507 31.2346 40.8519C31.4136 40.7531 31.564 40.6098 31.6716 40.436C31.7791 40.2621 31.84 40.0635 31.8484 39.8593C31.8569 39.6551 31.8127 39.4522 31.7199 39.27L30.4199 36.66C30.3191 36.4626 30.166 36.2965 29.9773 36.1801C29.7887 36.0637 29.5716 36.0014 29.3499 36H18.6499C18.4267 36.0001 18.2079 36.0629 18.0187 36.1814C17.8295 36.2999 17.6774 36.4692 17.5799 36.67Z" fill="currentColor"/>
</svg>
