<svg width="48" height="48" viewBox="0 0 48 48" fill="currentColor" xmlns="http://www.w3.org/2000/svg">
<path d="M17 26.7743V30.3843C17 30.7026 17.1265 31.0078 17.3515 31.2329C17.5765 31.4579 17.8818 31.5843 18.2 31.5843H21.81C22.1249 31.5814 22.4262 31.4558 22.65 31.2343L35.23 18.6943C35.3419 18.5829 35.4306 18.4504 35.4912 18.3045C35.5518 18.1587 35.5829 18.0023 35.5829 17.8443C35.5829 17.6864 35.5518 17.53 35.4912 17.3842C35.4306 17.2383 35.3419 17.1058 35.23 16.9943L31.63 13.3843C31.5185 13.2725 31.386 13.1837 31.2402 13.1231C31.0943 13.0626 30.938 13.0314 30.78 13.0314C30.6221 13.0314 30.4657 13.0626 30.3198 13.1231C30.174 13.1837 30.0415 13.2725 29.93 13.3843L17.35 25.9643C17.1371 26.1818 17.0125 26.4703 17 26.7743Z" fill="currentColor"/>
<path d="M35.4399 7.84853L33.3964 9.89208C32.9278 10.3607 32.9277 11.1205 33.3964 11.5891L37.0026 15.1954C37.4712 15.664 38.2311 15.664 38.6997 15.1954L40.7432 13.1518C41.2119 12.6832 41.2119 11.9234 40.7432 11.4548L37.137 7.84852C36.6684 7.37989 35.9086 7.3799 35.4399 7.84853Z" fill="currentColor"/>
<path d="M36.06 21.3343L33.46 23.9243C33.2379 24.1517 33.1124 24.4564 33.11 24.7743V35.3443C33.11 35.6635 32.9839 35.9697 32.7592 36.1964C32.5344 36.423 32.2291 36.5516 31.91 36.5543H13.2C12.8808 36.5516 12.5756 36.423 12.3508 36.1964C12.1261 35.9697 12 35.6635 12 35.3443V16.6943C12 16.3751 12.1261 16.0688 12.3508 15.8422C12.5756 15.6156 12.8808 15.4869 13.2 15.4843H23.77C23.928 15.4863 24.0847 15.4564 24.2308 15.3963C24.3769 15.3361 24.5093 15.247 24.62 15.1343L27.22 12.5443C27.387 12.3751 27.5005 12.1605 27.5463 11.9273C27.592 11.694 27.5681 11.4524 27.4774 11.2327C27.3867 11.013 27.2334 10.8248 27.0364 10.6917C26.8395 10.5586 26.6077 10.4865 26.37 10.4843H8.20001C7.88175 10.4843 7.57655 10.6107 7.3515 10.8357C7.12646 11.0608 7 11.366 7 11.6843V40.3943C6.99999 40.7135 7.12607 41.0197 7.35083 41.2464C7.57559 41.473 7.88084 41.6016 8.20001 41.6043H26.66C26.71 41.6043 26.76 41.6043 26.81 41.6043H36.91C37.2282 41.6043 37.5335 41.4779 37.7585 41.2528C37.9836 41.0278 38.11 40.7225 38.11 40.4043V22.2043C38.1146 21.9648 38.0475 21.7294 37.9172 21.5284C37.787 21.3275 37.5995 21.17 37.379 21.0765C37.1585 20.9829 36.9151 20.9574 36.6801 21.0034C36.445 21.0493 36.229 21.1646 36.06 21.3343Z" fill="currentColor"/>
</svg>
