<svg width="48" height="48" viewBox="0 0 48 48" fill="#ffffff" xmlns="http://www.w3.org/2000/svg">
<path d="M9.79999 28.5H7.20001C6.88175 28.5 6.57651 28.6264 6.35147 28.8515C6.12643 29.0765 6 29.3817 6 29.7V39.8C6 40.1183 6.12643 40.4235 6.35147 40.6485C6.57651 40.8736 6.88175 41 7.20001 41H17.3C17.6182 41 17.9235 40.8736 18.1485 40.6485C18.3735 40.4235 18.5 40.1183 18.5 39.8V37.2C18.5 36.8817 18.3735 36.5765 18.1485 36.3515C17.9235 36.1264 17.6182 36 17.3 36H12.2C11.8818 36 11.5765 35.8736 11.3515 35.6485C11.1264 35.4235 11 35.1183 11 34.8V29.7C11 29.3817 10.8736 29.0765 10.6485 28.8515C10.4235 28.6264 10.1182 28.5 9.79999 28.5Z" fill="currentColor"/>
<path d="M7.20001 6C6.88175 6 6.57651 6.12643 6.35147 6.35147C6.12643 6.57651 6 6.88174 6 7.2V17.3C6 17.6183 6.12643 17.9235 6.35147 18.1485C6.57651 18.3736 6.88175 18.5 7.20001 18.5H9.79999C10.1182 18.5 10.4235 18.3736 10.6485 18.1485C10.8736 17.9235 11 17.6183 11 17.3V12.2C11 11.8817 11.1264 11.5765 11.3515 11.3515C11.5765 11.1264 11.8818 11 12.2 11H17.3C17.6182 11 17.9235 10.8736 18.1485 10.6485C18.3735 10.4235 18.5 10.1183 18.5 9.8V7.2C18.5 6.88174 18.3735 6.57651 18.1485 6.35147C17.9235 6.12643 17.6182 6 17.3 6H7.20001Z" fill="currentColor"/>
<path d="M36 6H29.7C29.5424 6 29.3864 6.03103 29.2408 6.09134C29.0952 6.15164 28.9629 6.24004 28.8515 6.35147C28.7401 6.4629 28.6517 6.59519 28.5914 6.74078C28.5311 6.88637 28.5 7.04241 28.5 7.2V9.8C28.5 9.95759 28.5311 10.1136 28.5914 10.2592C28.6517 10.4048 28.7401 10.5371 28.8515 10.6485C28.9629 10.76 29.0952 10.8484 29.2408 10.9087C29.3864 10.969 29.5424 11 29.7 11H34.8C34.9576 11 35.1136 11.031 35.2592 11.0913C35.4048 11.1516 35.5371 11.24 35.6485 11.3515C35.7599 11.4629 35.8483 11.5952 35.9086 11.7408C35.9689 11.8864 36 12.0424 36 12.2V17.3C36 17.4576 36.0311 17.6136 36.0914 17.7592C36.1517 17.9048 36.2401 18.0371 36.3515 18.1485C36.4629 18.26 36.5952 18.3484 36.7408 18.4087C36.8864 18.469 37.0424 18.5 37.2 18.5H39.8C40.1182 18.5 40.4235 18.3736 40.6485 18.1485C40.8735 17.9235 41 17.6183 41 17.3V7.2C41 6.88174 40.8735 6.57651 40.6485 6.35147C40.4235 6.12643 40.1182 6 39.8 6H36Z" fill="currentColor"/>
<path d="M34.8 36H29.7C29.3818 36 29.0765 36.1264 28.8515 36.3515C28.6265 36.5765 28.5 36.8817 28.5 37.2V39.8C28.5 40.1183 28.6265 40.4235 28.8515 40.6485C29.0765 40.8736 29.3818 41 29.7 41H39.8C40.1182 41 40.4235 40.8736 40.6485 40.6485C40.8735 40.4235 41 40.1183 41 39.8V29.7C41 29.3817 40.8735 29.0765 40.6485 28.8515C40.4235 28.6264 40.1182 28.5 39.8 28.5H37.2C36.8818 28.5 36.5765 28.6264 36.3515 28.8515C36.1265 29.0765 36 29.3817 36 29.7V34.8C36 34.9576 35.9689 35.1136 35.9086 35.2592C35.8483 35.4048 35.7599 35.5371 35.6485 35.6485C35.5371 35.76 35.4048 35.8484 35.2592 35.9087C35.1136 35.969 34.9576 36 34.8 36Z" fill="currentColor"/>
</svg>
