<svg width="48" height="48" viewBox="0 0 48 48" fill="currentColor" xmlns="http://www.w3.org/2000/svg">
<path d="M36.5 18V30H11.39V18H36.5ZM37.8 15.5H10.09C9.93291 15.4987 9.77706 15.5285 9.63153 15.5877C9.486 15.6469 9.35363 15.7343 9.24207 15.8449C9.1305 15.9556 9.04193 16.0872 8.98151 16.2323C8.92108 16.3773 8.89001 16.5329 8.89001 16.69V31.3C8.89001 31.4576 8.92102 31.6136 8.98132 31.7592C9.04163 31.9048 9.13002 32.0371 9.24146 32.1485C9.35289 32.26 9.48521 32.3483 9.6308 32.4086C9.77639 32.4689 9.93244 32.5 10.09 32.5H37.81C38.1283 32.5 38.4335 32.3736 38.6585 32.1485C38.8836 31.9235 39.01 31.6182 39.01 31.3V16.69C39.01 16.5329 38.9789 16.3773 38.9185 16.2323C38.858 16.0872 38.7695 15.9556 38.658 15.8449C38.5464 15.7343 38.414 15.6469 38.2685 15.5877C38.123 15.5285 37.9671 15.4987 37.81 15.5H37.8Z" fill="currentColor"/>
<path d="M41.5 13.05V34.94H6.5V13.05H41.5ZM42.8 10.55H5.20001C4.88175 10.55 4.57655 10.6764 4.3515 10.9015C4.12646 11.1265 4 11.4317 4 11.75V36.24C4 36.5582 4.12646 36.8635 4.3515 37.0886C4.57655 37.3136 4.88175 37.44 5.20001 37.44H42.8C42.9576 37.44 43.1136 37.4089 43.2592 37.3486C43.4048 37.2883 43.5371 37.2 43.6485 37.0886C43.7599 36.9771 43.8483 36.8448 43.9086 36.6992C43.9689 36.5536 44 36.3976 44 36.24V11.75C44 11.5924 43.9689 11.4364 43.9086 11.2908C43.8483 11.1452 43.7599 11.0129 43.6485 10.9015C43.5371 10.7901 43.4048 10.7017 43.2592 10.6414C43.1136 10.581 42.9576 10.55 42.8 10.55Z" fill="currentColor"/>
<path d="M25.2 5.25C25.2 4.55964 24.6404 4 23.95 4C23.2597 4 22.7 4.55964 22.7 5.25V7.75C22.7 8.44036 23.2597 9 23.95 9C24.6404 9 25.2 8.44036 25.2 7.75V5.25Z" fill="currentColor"/>
<path d="M10.3702 5.10471C9.882 4.61655 9.09054 4.61655 8.60239 5.10471C8.11423 5.59286 8.11423 6.38432 8.60239 6.87247L10.3702 8.64024C10.8583 9.1284 11.6498 9.1284 12.1379 8.64024C12.6261 8.15209 12.6261 7.36063 12.1379 6.87247L10.3702 5.10471Z" fill="currentColor"/>
<path d="M39.3045 6.86517C39.7927 6.37702 39.7927 5.58556 39.3045 5.09741C38.8164 4.60925 38.0249 4.60925 37.5367 5.09741L35.769 6.86517C35.2808 7.35333 35.2808 8.14479 35.769 8.63294C36.2571 9.1211 37.0486 9.1211 37.5367 8.63294L39.3045 6.86517Z" fill="currentColor"/>
<path d="M22.7 42.75C22.7 43.4404 23.2597 44 23.95 44C24.6404 44 25.2 43.4404 25.2 42.75V40.25C25.2 39.5596 24.6404 39 23.95 39C23.2597 39 22.7 39.5596 22.7 40.25V42.75Z" fill="currentColor"/>
<path d="M37.5323 42.8919C38.0204 43.3801 38.8119 43.3801 39.3 42.8919C39.7882 42.4038 39.7882 41.6123 39.3 41.1242L37.5323 39.3564C37.0441 38.8682 36.2527 38.8682 35.7645 39.3564C35.2764 39.8446 35.2764 40.636 35.7645 41.1242L37.5323 42.8919Z" fill="currentColor"/>
<path d="M8.60022 41.1444C8.11206 41.6325 8.11206 42.424 8.60022 42.9122C9.08837 43.4003 9.87983 43.4003 10.368 42.9122L12.1358 41.1444C12.6239 40.6562 12.6239 39.8648 12.1358 39.3766C11.6476 38.8885 10.8561 38.8885 10.368 39.3766L8.60022 41.1444Z" fill="currentColor"/>
</svg>
