<svg width="15" height="18" viewBox="0 0 15 18" fill="currentColor" xmlns="http://www.w3.org/2000/svg">
<g clip-path="url(#clip0_2341:19583)">
<path d="M13.0193 4.47503C12.8816 4.47347 12.7441 4.48689 12.6093 4.51504V3.79003C12.6146 3.52845 12.5675 3.26845 12.4708 3.02536C12.3741 2.78226 12.2297 2.561 12.0461 2.3746C11.8625 2.1882 11.6434 2.04045 11.4018 1.94006C11.1602 1.83966 10.9009 1.78864 10.6393 1.79003C10.4707 1.79273 10.303 1.81454 10.1393 1.85504C10.0141 1.45677 9.7643 1.10921 9.42677 0.86349C9.08925 0.617771 8.68178 0.486878 8.2643 0.490046C7.84501 0.488964 7.436 0.619688 7.09505 0.863734C6.7541 1.10778 6.49848 1.45279 6.36431 1.85003C6.20064 1.8101 6.03277 1.78995 5.86431 1.79003C5.33387 1.79003 4.82516 2.00075 4.45009 2.37582C4.07502 2.75089 3.86431 3.2596 3.86431 3.79003V8.82003C3.59434 8.60911 3.27665 8.46779 2.93923 8.4085C2.6018 8.34922 2.255 8.37378 1.92931 8.48004C1.62514 8.57456 1.34709 8.73851 1.11714 8.95892C0.887193 9.17932 0.71162 9.45016 0.604295 9.75006C0.499981 10.0301 0.459765 10.33 0.486589 10.6277C0.513412 10.9253 0.60659 11.2132 0.759294 11.4701L1.3943 12.765L1.4243 12.825C3.8243 16.825 5.4243 17.975 8.61431 17.975C12.6543 17.975 14.9693 15.95 14.9693 12.415V6.46005C14.9733 6.20122 14.9258 5.94419 14.8296 5.70385C14.7335 5.46352 14.5906 5.24465 14.4092 5.05999C14.2278 4.87533 14.0115 4.72852 13.7729 4.62811C13.5343 4.52769 13.2782 4.47566 13.0193 4.47503ZM8.63429 16.39C6.41429 16.39 5.1943 15.975 2.8243 12.035L2.18929 10.74L2.15428 10.675C2.11766 10.6195 2.09493 10.5561 2.08797 10.4899C2.08101 10.4238 2.09004 10.357 2.1143 10.295C2.14214 10.2278 2.1843 10.1675 2.23784 10.1183C2.29138 10.0691 2.35501 10.0321 2.4243 10.01C2.52656 9.9761 2.63705 9.9761 2.73931 10.01C2.84066 10.04 2.92994 10.1012 2.99431 10.1851L3.02928 10.225L4.0743 11.39C4.14367 11.4679 4.22776 11.5312 4.32173 11.5764C4.4157 11.6216 4.5177 11.6477 4.62181 11.6533C4.72593 11.6589 4.8301 11.6438 4.92836 11.6089C5.02662 11.574 5.117 11.52 5.19429 11.45C5.27718 11.3759 5.34327 11.2849 5.38811 11.1832C5.43295 11.0814 5.45552 10.9712 5.4543 10.86C5.45479 10.8517 5.45479 10.8434 5.4543 10.835V3.83505C5.45297 3.78186 5.46214 3.72893 5.48128 3.67929C5.50041 3.62964 5.52913 3.58425 5.56581 3.54571C5.6025 3.50717 5.64641 3.47624 5.69505 3.45468C5.7437 3.43312 5.7961 3.42134 5.84929 3.42004C5.90357 3.41258 5.95883 3.4178 6.01076 3.43527C6.06269 3.45273 6.10987 3.48198 6.14861 3.52072C6.18735 3.55946 6.21662 3.60664 6.23409 3.65856C6.25155 3.71049 6.25674 3.76576 6.24928 3.82003V9.27005C6.24059 9.37941 6.25463 9.4894 6.29051 9.59307C6.3264 9.69675 6.38337 9.79187 6.45781 9.87246C6.53225 9.95305 6.62256 10.0173 6.72307 10.0613C6.82358 10.1053 6.93209 10.128 7.0418 10.128C7.15151 10.128 7.26002 10.1053 7.36052 10.0613C7.46103 10.0173 7.55134 9.95305 7.62578 9.87246C7.70022 9.79187 7.75719 9.69675 7.79308 9.59307C7.82896 9.4894 7.843 9.37941 7.83431 9.27005V2.52005C7.83693 2.41218 7.88196 2.30968 7.95964 2.2348C8.03733 2.15992 8.14139 2.1187 8.24928 2.12005C8.30092 2.11998 8.35203 2.13042 8.39949 2.15075C8.44695 2.17109 8.48976 2.20087 8.52532 2.23831C8.56088 2.27574 8.58843 2.32003 8.60631 2.36846C8.62419 2.4169 8.63201 2.46849 8.62929 2.52005V9.27005C8.62929 9.48089 8.71305 9.68309 8.86214 9.83218C9.01123 9.98127 9.21346 10.0651 9.4243 10.0651C9.63515 10.0651 9.83735 9.98127 9.98644 9.83218C10.1355 9.68309 10.2193 9.48089 10.2193 9.27005V3.82003C10.2123 3.76452 10.2184 3.70817 10.2371 3.65542C10.2557 3.60267 10.2864 3.55499 10.3267 3.51617C10.367 3.47735 10.4157 3.44845 10.4691 3.43176C10.5225 3.41507 10.5791 3.41106 10.6343 3.42004C10.6859 3.41997 10.737 3.43044 10.7845 3.45077C10.832 3.47111 10.8748 3.50089 10.9103 3.53833C10.9459 3.57576 10.9734 3.62005 10.9913 3.66848C11.0092 3.71692 11.017 3.76847 11.0143 3.82003V9.27005C11.0143 9.48089 11.0981 9.68309 11.2471 9.83218C11.3962 9.98127 11.5984 10.0651 11.8093 10.0651C12.0201 10.0651 12.2224 9.98127 12.3714 9.83218C12.5205 9.68309 12.6043 9.48089 12.6043 9.27005V6.49005C12.6043 6.39005 12.6043 6.09005 13.0143 6.09005C13.0659 6.08998 13.117 6.10042 13.1645 6.12075C13.2119 6.14109 13.2548 6.17088 13.2903 6.20831C13.3259 6.24574 13.3534 6.29003 13.3713 6.33847C13.3892 6.3869 13.397 6.43849 13.3943 6.49005V12.445C13.3993 15.09 11.8443 16.39 8.63429 16.39Z" fill="currentColor"/>
</g>
<defs>
<clipPath id="clip0_2341:19583">
<rect width="14.495" height="17.475" fill="currentColor" transform="translate(0.5 0.5)"/>
</clipPath>
</defs>
</svg>
