<svg width="48" height="48" viewBox="0 0 48 48" fill="currentColor" xmlns="http://www.w3.org/2000/svg">
<path d="M21.16 34.24L19.96 35.44C18.976 36.4253 17.6409 36.9793 16.2485 36.9803C14.856 36.9812 13.5203 36.4289 12.535 35.445C11.5497 34.461 10.9956 33.126 10.9947 31.7335C10.9938 30.341 11.546 29.0053 12.53 28.02L16.9 23.69C17.7243 22.9087 18.7745 22.4077 19.9005 22.2586C21.0264 22.1096 22.1707 22.32 23.17 22.86L23.39 22.97C23.53 23.06 23.66 23.17 23.79 23.27C23.9777 23.3992 24.1549 23.5429 24.32 23.7C24.8149 24.1941 25.2059 24.7823 25.47 25.43C26.1306 25.5868 26.8197 25.5776 27.4758 25.4031C28.1319 25.2286 28.7346 24.8942 29.23 24.43L30.1 23.55C29.5867 22.2761 28.8253 21.1169 27.86 20.14L27.62 19.93C27.4705 19.7853 27.3137 19.6484 27.15 19.52L27.07 19.46C25.1442 17.8762 22.7047 17.0534 20.2132 17.1474C17.7216 17.2414 15.3509 18.2457 13.55 19.97L13.34 20.15L12.14 21.35L8.99996 24.49C7.15835 26.4305 6.14756 29.0136 6.183 31.6886C6.21844 34.3637 7.29735 36.9191 9.18971 38.8102C11.0821 40.7012 13.6382 41.7783 16.3132 41.8119C18.9883 41.8455 21.5707 40.8329 23.51 38.99L24.71 37.79L21.16 34.24Z" fill="currentColor"/>
<path d="M37.98 24.5C39.9028 22.5772 40.9831 19.9693 40.9831 17.25C40.9831 14.5307 39.9028 11.9228 37.98 10C37.0279 9.04791 35.8976 8.29266 34.6537 7.7774C33.4097 7.26214 32.0765 6.99694 30.73 6.99694C28.0107 6.99694 25.4028 8.07718 23.48 10L22.28 11.2L25.81 14.73L27.01 13.53C28.0055 12.5946 29.326 12.0831 30.6919 12.1039C32.0578 12.1247 33.3621 12.6762 34.3287 13.6415C35.2953 14.6068 35.8484 15.9103 35.8711 17.2762C35.8937 18.6421 35.3841 19.9632 34.45 20.96L30.09 25.31C29.8683 25.528 29.6273 25.7255 29.37 25.9L29.09 26.06C28.922 26.1598 28.7483 26.25 28.57 26.33L28.19 26.47L27.72 26.61C27.5721 26.6496 27.4218 26.6797 27.27 26.7C27.1335 26.7092 26.9965 26.7092 26.86 26.7C26.68 26.7 26.51 26.7 26.33 26.7H26.04C25.2672 26.6557 24.5131 26.4441 23.83 26.08L23.61 25.97C23.47 25.88 23.34 25.77 23.2 25.67C23.0179 25.5376 22.8442 25.394 22.68 25.24C22.1827 24.744 21.7914 24.152 21.53 23.5C20.8694 23.3432 20.1803 23.3524 19.5241 23.5269C18.868 23.7014 18.2654 24.0357 17.77 24.5L16.89 25.38C17.4067 26.6545 18.1715 27.8136 19.14 28.79L19.38 29C19.54 29.15 19.71 29.29 19.88 29.43C20.1 29.6 20.31 29.77 20.54 29.92L20.62 29.98C20.8226 30.1216 21.0329 30.2518 21.25 30.37L21.4 30.46L22 30.77L22.23 30.87C22.4167 30.9567 22.6067 31.0366 22.8 31.11L23.11 31.22L23.64 31.38L24.04 31.48L24.51 31.58C24.6884 31.6165 24.8687 31.6432 25.05 31.66H25.42C25.73 31.66 26.04 31.66 26.35 31.66C26.66 31.66 27.02 31.66 27.35 31.66C27.53 31.66 27.7 31.61 27.88 31.59L28.32 31.52L29.04 31.35L29.27 31.29C29.5484 31.2082 29.8221 31.1115 30.09 31H30.18C30.47 30.88 30.76 30.75 31.05 30.6C31.9201 30.1452 32.7214 29.5695 33.43 28.89L33.61 28.73L34.81 27.52L37.98 24.5Z" fill="currentColor"/>
</svg>
