<svg width="48" height="48" viewBox="0 0 48 48" fill="currentColor" xmlns="http://www.w3.org/2000/svg">
<path d="M40.59 37.14L35.19 31.74L34.92 31.47C34.92 31.47 34.73 31.32 34.92 31.02L35.06 30.79C36.2408 28.7219 36.8612 26.3814 36.86 24V22.59C36.86 22.2717 36.7335 21.9665 36.5085 21.7415C36.2835 21.5164 35.9782 21.39 35.66 21.39H34.31C34.1521 21.3887 33.9954 21.4188 33.8492 21.4786C33.703 21.5385 33.5702 21.6268 33.4585 21.7385C33.3468 21.8502 33.2585 21.983 33.1986 22.1292C33.1388 22.2754 33.1087 22.432 33.11 22.59V24C33.1052 25.3776 32.8159 26.7394 32.26 28C32.2344 28.0612 32.1933 28.1146 32.1406 28.1549C32.088 28.1953 32.0257 28.2212 31.96 28.23C31.8972 28.2367 31.8338 28.2303 31.7736 28.2114C31.7134 28.1925 31.6577 28.1614 31.61 28.12L30.61 27.12L30.44 26.95C30.3621 26.8486 30.3044 26.7331 30.27 26.61C30.2381 26.4752 30.2381 26.3348 30.27 26.2C30.27 26.05 30.33 26.05 30.37 25.9C30.5343 25.2834 30.6183 24.6481 30.62 24.01V11.51C30.6426 9.52087 29.874 7.60426 28.4834 6.18179C27.0928 4.75933 25.1941 3.94753 23.205 3.92499C21.2158 3.90245 19.2992 4.671 17.8768 6.06159C16.4543 7.45217 15.6426 9.35087 15.62 11.34V11.17C15.6215 11.2525 15.5998 11.3337 15.5574 11.4044C15.515 11.4751 15.4535 11.5325 15.38 11.57C15.325 11.6106 15.2584 11.6325 15.19 11.6325C15.1216 11.6325 15.055 11.6106 15 11.57L10.91 7.48C10.7985 7.36813 10.666 7.27935 10.5202 7.21878C10.3743 7.15822 10.2179 7.12705 10.06 7.12705C9.90208 7.12705 9.74567 7.15822 9.59981 7.21878C9.45395 7.27935 9.32146 7.36813 9.20998 7.48L7.37001 9.30998C7.14346 9.53685 7.01619 9.84438 7.01619 10.165C7.01619 10.4856 7.14346 10.7931 7.37001 11.02L15.61 19.25L26.88 30.52L28.69 32.33L37.07 40.71C37.1815 40.8219 37.3139 40.9106 37.4598 40.9712C37.6057 41.0318 37.7621 41.0629 37.92 41.0629C38.0779 41.0629 38.2343 41.0318 38.3802 40.9712C38.5261 40.9106 38.6585 40.8219 38.77 40.71L40.61 38.88C40.7267 38.7665 40.8192 38.6305 40.8817 38.4802C40.9442 38.3299 40.9754 38.1685 40.9735 38.0057C40.9717 37.8429 40.9367 37.6822 40.8707 37.5334C40.8048 37.3846 40.7093 37.2507 40.59 37.14Z" fill="currentColor"/>
<path d="M16.6 23.77L15.98 23.15C15.98 23.15 15.84 23.01 15.71 23.06C15.58 23.11 15.59 23.29 15.59 23.29V24.01C15.6108 26.0192 16.4182 27.9402 17.839 29.361C19.2598 30.7818 21.1808 31.5892 23.19 31.61H23.91C23.9532 31.6038 23.9942 31.5868 24.0292 31.5606C24.0641 31.5344 24.0919 31.4998 24.11 31.46C24.1191 31.4165 24.1185 31.3715 24.1081 31.3282C24.0977 31.285 24.0779 31.2446 24.05 31.21L23.43 30.59L16.6 23.77Z" fill="currentColor"/>
<path d="M28.59 35.77L26.95 34.13L26.86 34.04C26.7142 33.8846 26.5311 33.769 26.3281 33.7042C26.1251 33.6395 25.9088 33.6277 25.7 33.67H25.59C24.7738 33.8833 23.9336 33.9908 23.09 33.99C20.4378 33.99 17.8943 32.9364 16.0189 31.0611C14.1436 29.1857 13.09 26.6422 13.09 23.99V22.58C13.09 22.2617 12.9636 21.9565 12.7385 21.7315C12.5135 21.5064 12.2082 21.38 11.89 21.38H10.53C10.3724 21.38 10.2163 21.411 10.0708 21.4713C9.92516 21.5316 9.7929 21.62 9.68147 21.7315C9.57004 21.8429 9.48165 21.9752 9.42134 22.1208C9.36104 22.2664 9.32997 22.4224 9.32997 22.58V23.99C9.33574 27.1349 10.4186 30.1828 12.3982 32.6264C14.3778 35.07 17.1348 36.7618 20.21 37.42C20.508 37.5033 20.7691 37.685 20.9507 37.9356C21.1323 38.1862 21.2236 38.4908 21.21 38.8V39.03C21.21 39.3492 21.0839 39.6554 20.8591 39.8821C20.6344 40.1087 20.3292 40.2374 20.01 40.24H18.89C18.5717 40.24 18.2665 40.3664 18.0415 40.5915C17.8164 40.8165 17.69 41.1217 17.69 41.44V42.77C17.69 43.0883 17.8164 43.3935 18.0415 43.6185C18.2665 43.8436 18.5717 43.97 18.89 43.97H27.29C27.6065 43.9674 27.9092 43.8398 28.1321 43.615C28.355 43.3903 28.48 43.0865 28.48 42.77V41.42C28.48 41.2624 28.4489 41.1064 28.3886 40.9608C28.3283 40.8152 28.2399 40.6829 28.1285 40.5715C28.0171 40.46 27.8848 40.3717 27.7392 40.3114C27.5936 40.251 27.4376 40.22 27.28 40.22H26.16C25.8391 40.22 25.5313 40.0925 25.3044 39.8656C25.0775 39.6387 24.95 39.3309 24.95 39.01V38.77C24.9386 38.4625 25.0311 38.1602 25.2125 37.9116C25.3939 37.6631 25.6537 37.4829 25.95 37.4C26.8418 37.2048 27.7126 36.9235 28.55 36.56L28.68 36.51C28.7362 36.473 28.7821 36.4225 28.8136 36.3631C28.845 36.3036 28.861 36.2372 28.86 36.17C28.8397 36.021 28.7691 35.8834 28.66 35.78L28.59 35.77Z" fill="currentColor"/>
</svg>
