<svg width="48" height="48" viewBox="0 0 48 48" fill="currentColor" xmlns="http://www.w3.org/2000/svg">
<path fill-rule="evenodd" clip-rule="evenodd" d="M23.76 31.51C25.7491 31.51 27.6567 30.7198 29.0633 29.3133C30.4698 27.9068 31.26 25.9991 31.26 24.01V11.51C31.26 9.52088 30.4698 7.61323 29.0633 6.2067C27.6567 4.80018 25.7491 4.01 23.76 4.01C21.7709 4.01 19.8632 4.80018 18.4567 6.2067C17.0502 7.61323 16.26 9.52088 16.26 11.51V24.01C16.26 25.9991 17.0502 27.9068 18.4567 29.3133C19.8632 30.7198 21.7709 31.51 23.76 31.51Z" fill="currentColor"/>
<path d="M36.31 21.39H34.95C34.7929 21.3887 34.6371 21.4185 34.4915 21.4777C34.346 21.5369 34.2136 21.6244 34.1021 21.735C33.9905 21.8456 33.9019 21.9773 33.8415 22.1223C33.7811 22.2673 33.75 22.4229 33.75 22.58V24C33.75 26.6522 32.6964 29.1957 30.8211 31.0711C28.9457 32.9464 26.4021 34 23.75 34C21.0978 34 18.5543 32.9464 16.6789 31.0711C14.8036 29.1957 13.75 26.6522 13.75 24V22.58C13.75 22.2644 13.6246 21.9617 13.4015 21.7385C13.1783 21.5154 12.8756 21.39 12.56 21.39H11.2C11.0429 21.3887 10.8871 21.4185 10.7415 21.4777C10.596 21.5369 10.4636 21.6244 10.3521 21.735C10.2405 21.8456 10.1519 21.9773 10.0915 22.1223C10.0311 22.2673 9.99996 22.4229 9.99997 22.58V24C10.002 27.1432 11.0824 30.1906 13.0608 32.633C15.0392 35.0755 17.7957 36.7653 20.87 37.42C21.1688 37.5053 21.4302 37.6889 21.6117 37.9411C21.7932 38.1934 21.8841 38.4996 21.87 38.81V39.04C21.87 39.1976 21.839 39.3536 21.7787 39.4992C21.7184 39.6448 21.63 39.7771 21.5185 39.8885C21.4071 40 21.2748 40.0883 21.1292 40.1487C20.9837 40.209 20.8276 40.24 20.67 40.24H19.55C19.2291 40.24 18.9213 40.3675 18.6944 40.5944C18.4674 40.8213 18.34 41.1291 18.34 41.45V42.79C18.34 42.9489 18.3713 43.1062 18.4321 43.253C18.4929 43.3998 18.582 43.5332 18.6944 43.6456C18.8067 43.758 18.9401 43.8471 19.0869 43.9079C19.2337 43.9687 19.3911 44 19.55 44H27.94C28.0989 44 28.2562 43.9687 28.403 43.9079C28.5499 43.8471 28.6832 43.758 28.7956 43.6456C28.9079 43.5332 28.9971 43.3998 29.0579 43.253C29.1187 43.1062 29.15 42.9489 29.15 42.79V41.45C29.15 41.1291 29.0225 40.8213 28.7956 40.5944C28.5686 40.3675 28.2609 40.24 27.94 40.24H26.82C26.6624 40.24 26.5063 40.209 26.3607 40.1487C26.2152 40.0883 26.0829 40 25.9715 39.8885C25.86 39.7771 25.7716 39.6448 25.7113 39.4992C25.651 39.3536 25.62 39.1976 25.62 39.04V38.81C25.6058 38.4996 25.6968 38.1934 25.8783 37.9411C26.0598 37.6889 26.3211 37.5053 26.62 37.42C29.6942 36.7653 32.4508 35.0755 34.4292 32.633C36.4075 30.1906 37.488 27.1432 37.49 24V22.58C37.49 22.2661 37.366 21.9649 37.145 21.7421C36.924 21.5192 36.6238 21.3926 36.31 21.39Z" fill="currentColor"/>
</svg>
