<svg width="48" height="48" viewBox="0 0 48 48" fill="currentColor" xmlns="http://www.w3.org/2000/svg">
<path d="M41.0001 33.73V13.27C40.9979 13.0323 40.9258 12.8005 40.7927 12.6036C40.6596 12.4066 40.4714 12.2533 40.2516 12.1626C40.0319 12.0719 39.7904 12.048 39.5571 12.0938C39.3239 12.1395 39.1093 12.253 38.9401 12.42L28.7001 22.66C28.5882 22.7715 28.4995 22.9039 28.4389 23.0498C28.3783 23.1957 28.3472 23.3521 28.3472 23.51C28.3472 23.6679 28.3783 23.8243 28.4389 23.9702C28.4995 24.116 28.5882 24.2485 28.7001 24.36L38.9401 34.6C39.1105 34.7682 39.3269 34.882 39.562 34.9272C39.7971 34.9723 40.0403 34.9467 40.2609 34.8535C40.4814 34.7604 40.6694 34.6039 40.801 34.4039C40.9326 34.2039 41.0019 33.9694 41.0001 33.73Z" fill="currentColor"/>
<path d="M24.16 6H22.85C22.1818 6 21.64 6.54173 21.64 7.21V39.79C21.64 40.4583 22.1818 41 22.85 41H24.16C24.8283 41 25.37 40.4583 25.37 39.79V7.21C25.37 6.54173 24.8283 6 24.16 6Z" fill="currentColor"/>
<path d="M18.29 22.65L8.04002 12.4C7.93192 12.2866 7.80139 12.1969 7.65678 12.1367C7.51217 12.0764 7.35662 12.0469 7.19999 12.05C7.04204 12.0486 6.88543 12.0788 6.73924 12.1386C6.59305 12.1984 6.46019 12.2868 6.34849 12.3985C6.2368 12.5102 6.1485 12.643 6.08867 12.7892C6.02883 12.9354 5.99871 13.092 6.00004 13.25V33.75C6.00004 34.0682 6.12644 34.3734 6.35148 34.5985C6.57653 34.8235 6.88173 34.95 7.19999 34.95C7.35629 34.9507 7.51117 34.9201 7.65544 34.86C7.79971 34.7999 7.93048 34.7115 8.04002 34.6L18.29 24.34C18.4016 24.2293 18.4901 24.0977 18.5506 23.9527C18.611 23.8076 18.6421 23.6521 18.6421 23.495C18.6421 23.3379 18.611 23.1823 18.5506 23.0373C18.4901 22.8922 18.4016 22.7606 18.29 22.65ZM14.54 23.88L9.94004 28.48C9.86591 28.5563 9.77052 28.6085 9.6663 28.6298C9.56209 28.6512 9.45386 28.6407 9.35569 28.5997C9.25753 28.5587 9.17397 28.4891 9.11589 28.4C9.05781 28.3109 9.02787 28.2063 9.03001 28.1V18.9C9.02787 18.7936 9.05781 18.6891 9.11589 18.5999C9.17397 18.5108 9.25753 18.4412 9.35569 18.4002C9.45386 18.3593 9.56209 18.3487 9.6663 18.3701C9.77052 18.3914 9.86591 18.4437 9.94004 18.52L14.54 23.12C14.6402 23.2211 14.6963 23.3576 14.6963 23.5C14.6963 23.6423 14.6402 23.7788 14.54 23.88Z" fill="currentColor"/>
</svg>
