<svg width="48" height="48" viewBox="0 0 48 48" fill="currentColor" xmlns="http://www.w3.org/2000/svg">
<path d="M6 33.73L6 13.26C6.00023 13.0215 6.07096 12.7883 6.20331 12.5898C6.33566 12.3914 6.52371 12.2365 6.74384 12.1446C6.96397 12.0527 7.20638 12.0279 7.44056 12.0733C7.67473 12.1188 7.89023 12.2324 8.06 12.4L18.3 22.64C18.4119 22.7515 18.5007 22.884 18.5612 23.0298C18.6218 23.1757 18.653 23.3321 18.653 23.49C18.653 23.6479 18.6218 23.8043 18.5612 23.9502C18.5007 24.0961 18.4119 24.2285 18.3 24.34L8.06 34.58C7.89083 34.747 7.67625 34.8605 7.443 34.9062C7.20974 34.952 6.96815 34.9281 6.74842 34.8374C6.52868 34.7467 6.34056 34.5934 6.20746 34.3964C6.07436 34.1995 6.00218 33.9677 6 33.73Z" fill="currentColor"/>
<path d="M22.84 41L24.15 41C24.8182 41 25.36 40.4583 25.36 39.79L25.36 7.21C25.36 6.54173 24.8182 6 24.15 6L22.84 6C22.1717 6 21.63 6.54173 21.63 7.21L21.63 39.79C21.63 40.4583 22.1717 41 22.84 41Z" fill="currentColor"/>
<path d="M28.71 24.35L38.96 34.6C39.0681 34.7134 39.1986 34.8031 39.3432 34.8633C39.4878 34.9236 39.6433 34.9531 39.7999 34.95C39.9579 34.9514 40.1146 34.9212 40.2608 34.8614C40.407 34.8016 40.5398 34.7132 40.6514 34.6015C40.7631 34.4898 40.8515 34.357 40.9113 34.2108C40.9712 34.0646 41.0013 33.908 41 33.75L41 13.25C41 12.9318 40.8736 12.6266 40.6485 12.4015C40.4235 12.1765 40.1182 12.05 39.7999 12.05C39.6437 12.0493 39.4888 12.0799 39.3446 12.14C39.2003 12.2001 39.0695 12.2885 38.96 12.4L28.71 22.66C28.5984 22.7707 28.5099 22.9023 28.4494 23.0473C28.389 23.1924 28.3579 23.3479 28.3579 23.505C28.3579 23.6621 28.389 23.8177 28.4494 23.9627C28.5099 24.1078 28.5984 24.2394 28.71 24.35ZM32.49 23.12L37.09 18.52C37.1641 18.4437 37.2595 18.3915 37.3637 18.3702C37.4679 18.3488 37.5761 18.3593 37.6743 18.4003C37.7724 18.4413 37.856 18.5109 37.9141 18.6C37.9722 18.6891 38.0021 18.7937 38 18.9L38 28.1C38.0021 28.2064 37.9722 28.3109 37.9141 28.4001C37.856 28.4892 37.7724 28.5588 37.6743 28.5998C37.5761 28.6407 37.4679 28.6513 37.3637 28.6299C37.2595 28.6086 37.1641 28.5563 37.09 28.48L32.49 23.88C32.3898 23.7789 32.3336 23.6424 32.3336 23.5C32.3336 23.3577 32.3898 23.2212 32.49 23.12Z" fill="currentColor"/>
</svg>
