<svg width="48" height="48" viewBox="0 0 48 48" fill="currentColor" xmlns="http://www.w3.org/2000/svg">
<path d="M22.4 8.99007C22.27 9.66007 22.14 10.4701 22.01 11.3501C21.9983 11.4423 22.0069 11.536 22.035 11.6245C22.0632 11.7131 22.1103 11.7945 22.1731 11.863C22.2359 11.9316 22.3129 11.9856 22.3987 12.0213C22.4845 12.0571 22.5771 12.0737 22.67 12.0701C27.0114 11.8954 31.3318 11.3738 35.59 10.5101C35.6799 10.4908 35.773 10.4918 35.8624 10.5129C35.9519 10.534 36.0355 10.5747 36.1073 10.6322C36.1791 10.6896 36.2372 10.7622 36.2775 10.8449C36.3177 10.9276 36.339 11.0181 36.34 11.1101V12.8501C36.3444 12.9977 36.2951 13.1418 36.2014 13.2558C36.1076 13.3698 35.9756 13.446 35.83 13.4701C31.2817 14.1944 26.6989 14.6817 22.1 14.9301C21.9537 14.936 21.8143 14.9934 21.7063 15.0922C21.5983 15.191 21.5288 15.3249 21.51 15.4701C21.38 16.6501 21.28 17.8901 21.19 19.1401C21.1834 19.2385 21.2004 19.3371 21.2396 19.4277C21.2788 19.5183 21.3391 19.5982 21.4153 19.6608C21.4916 19.7234 21.5818 19.7668 21.6782 19.7876C21.7747 19.8083 21.8747 19.8058 21.97 19.7801C23.9518 19.2777 25.9857 19.0092 28.03 18.9801C28.2831 18.965 28.5369 18.965 28.79 18.9801C29.49 19.0701 29.63 18.7701 29.67 18.6001C29.8433 18.0449 29.9704 17.4763 30.05 16.9001C30.0639 16.8147 30.0955 16.7333 30.1427 16.6609C30.1899 16.5884 30.2518 16.5267 30.3243 16.4796C30.3968 16.4325 30.4784 16.4011 30.5637 16.3874C30.6491 16.3737 30.7364 16.378 30.82 16.4001L32.68 16.8701C32.7645 16.8903 32.8439 16.9281 32.9128 16.981C32.9818 17.0339 33.0389 17.1007 33.0804 17.1771C33.1219 17.2535 33.1469 17.3377 33.1537 17.4244C33.1605 17.511 33.149 17.5981 33.12 17.6801C32.96 18.1101 32.83 18.6301 32.66 19.0301C32.6295 19.0916 32.6133 19.1592 32.6124 19.2278C32.6114 19.2964 32.6259 19.3645 32.6547 19.4268C32.6834 19.4891 32.7258 19.5442 32.7786 19.588C32.8315 19.6319 32.8934 19.6633 32.96 19.6801C37.82 21.1301 40.68 24.8201 40.68 29.2001C40.68 35.0301 36.89 40.0701 27.68 41.6701C27.5577 41.6892 27.4325 41.673 27.3192 41.6234C27.2058 41.5738 27.1089 41.4928 27.04 41.3901L26.04 39.8201C25.9771 39.7294 25.9388 39.624 25.9287 39.5141C25.9186 39.4042 25.9371 39.2936 25.9824 39.1929C26.0277 39.0923 26.0982 39.005 26.1871 38.9397C26.2761 38.8744 26.3804 38.8332 26.49 38.8201C33.35 37.8201 37.55 34.1001 37.55 29.0001C37.55 26.0001 35.66 23.3601 32.19 22.1501C32.0386 22.1003 31.8739 22.1097 31.7291 22.1765C31.5844 22.2433 31.4703 22.3625 31.41 22.5101C29.5101 27.298 26.5532 31.595 22.76 35.0801C22.6711 35.1555 22.6066 35.2557 22.5745 35.3678C22.5425 35.4799 22.5443 35.599 22.58 35.7101C22.81 36.5401 23.04 37.3201 23.27 38.0601C23.2945 38.1389 23.3031 38.2217 23.2952 38.3039C23.2873 38.386 23.2631 38.4657 23.2239 38.5384C23.1848 38.611 23.1316 38.6751 23.0674 38.7269C23.0032 38.7787 22.9292 38.8172 22.85 38.8401L21.08 39.3801C21.0031 39.4049 20.9222 39.4142 20.8418 39.4074C20.7614 39.4007 20.6831 39.3781 20.6115 39.3409C20.5398 39.3037 20.4763 39.2526 20.4246 39.1907C20.3728 39.1288 20.3339 39.0572 20.31 38.9801C20.21 38.6801 20.13 38.3701 20.04 38.0501C20.0158 37.9577 19.9707 37.8722 19.9081 37.8002C19.8455 37.7282 19.7671 37.6716 19.6791 37.6348C19.591 37.598 19.4956 37.5821 19.4004 37.5882C19.3052 37.5943 19.2126 37.6223 19.13 37.6701C17.2189 38.7896 15.0629 39.4248 12.85 39.5201C10.14 39.5201 8 37.8301 8 34.3401C8 29.1401 12.43 23.8701 17.95 21.1801C18.0494 21.1336 18.1339 21.0603 18.194 20.9685C18.254 20.8766 18.2873 20.7698 18.29 20.6601C18.37 18.9801 18.53 17.2901 18.67 15.6601C18.6771 15.5715 18.6654 15.4825 18.6356 15.3988C18.6059 15.3151 18.5588 15.2386 18.4974 15.1744C18.4361 15.1102 18.3618 15.0597 18.2795 15.0262C18.1972 14.9927 18.1087 14.977 18.02 14.9801C17.41 14.9801 16.82 14.9801 16.22 14.9801C14.64 14.9801 11.9 14.8501 10.13 14.7301C9.97428 14.72 9.82812 14.6517 9.72061 14.5386C9.61311 14.4255 9.55218 14.2761 9.54999 14.1201L9.5 12.3501C9.49927 12.2602 9.51778 12.1711 9.55432 12.089C9.59086 12.0068 9.64456 11.9334 9.71182 11.8737C9.77908 11.8141 9.85835 11.7695 9.94427 11.743C10.0302 11.7165 10.1208 11.7087 10.21 11.7201C11.9 11.9301 14.75 12.1401 16.26 12.1401C17.03 12.1401 17.76 12.1401 18.51 12.1401C18.6631 12.1338 18.8088 12.0728 18.9207 11.9682C19.0326 11.8636 19.1034 11.7224 19.12 11.5701C19.22 10.5701 19.32 9.72008 19.39 8.96008C19.39 8.49008 19.46 7.96007 19.47 7.61007C19.4752 7.44473 19.5453 7.28807 19.665 7.17394C19.7848 7.05981 19.9446 6.99738 20.11 7.00008L22.11 7.05007C22.2047 7.05297 22.2975 7.07721 22.3816 7.12096C22.4657 7.16472 22.5388 7.22689 22.5955 7.30282C22.6522 7.37875 22.691 7.46648 22.7091 7.5595C22.7272 7.65253 22.7241 7.74843 22.7 7.84008C22.55 8.27008 22.47 8.66007 22.4 8.99007ZM13.4 36.4001C15.3329 36.2639 17.1846 35.5691 18.73 34.4001C18.8292 34.3311 18.9064 34.235 18.9525 34.1233C18.9986 34.0116 19.0116 33.889 18.99 33.7701C18.4189 30.8268 18.1143 27.838 18.08 24.8401C18.08 24.5901 17.78 24.1501 17.17 24.6601C13.93 27.3701 11.06 30.6601 11.06 33.8001C11.1 35.5301 11.86 36.4001 13.44 36.4001H13.4ZM21.47 30.8901C21.4869 31.006 21.5364 31.1149 21.6126 31.2039C21.6889 31.2929 21.7888 31.3585 21.9008 31.393C22.0128 31.4275 22.1323 31.4296 22.2454 31.399C22.3586 31.3684 22.4607 31.3064 22.54 31.2201C25.091 28.6161 27.0908 25.5245 28.42 22.1301C28.5 21.9401 28.61 21.5601 27.95 21.5601C25.7126 21.5818 23.4948 21.9807 21.39 22.7401C21.2721 22.7794 21.1693 22.8544 21.0958 22.9548C21.0224 23.0551 20.9819 23.1758 20.98 23.3001C20.98 23.7201 20.98 24.1301 20.98 24.5601C20.9934 26.6938 21.1707 28.8234 21.51 30.9301L21.47 30.8901Z" fill="currentColor"/>
</svg>
