<svg width="48" height="48" viewBox="0 0 48 48" fill="currentColor" xmlns="http://www.w3.org/2000/svg">
<path d="M23.14 13.3705C23.06 13.7405 22.99 14.1705 22.91 14.6305C22.8977 14.695 22.9003 14.7614 22.9176 14.8248C22.9349 14.8881 22.9665 14.9466 23.0099 14.9959C23.0534 15.0451 23.1075 15.0837 23.1682 15.1088C23.2289 15.1339 23.2945 15.1447 23.36 15.1405C26.1798 15.0438 28.9865 14.7093 31.75 14.1405C31.8118 14.1272 31.8758 14.1278 31.9374 14.1421C31.999 14.1564 32.0567 14.1841 32.1064 14.2233C32.156 14.2624 32.1964 14.312 32.2247 14.3686C32.253 14.4251 32.2685 14.4873 32.27 14.5505V16.1905C32.2718 16.2946 32.2365 16.3959 32.1706 16.4764C32.1047 16.557 32.0124 16.6116 31.91 16.6305C28.9288 17.0995 25.9244 17.4066 22.91 17.5505C22.8067 17.5569 22.709 17.5995 22.634 17.6708C22.559 17.7422 22.5116 17.8376 22.5 17.9405C22.45 18.5805 22.39 19.2505 22.34 19.9405C22.335 20.0081 22.3459 20.0759 22.3721 20.1385C22.3983 20.201 22.4388 20.2565 22.4905 20.3003C22.5422 20.3442 22.6035 20.3753 22.6695 20.3909C22.7354 20.4066 22.8041 20.4064 22.87 20.3905C24.1128 20.0994 25.3837 19.9451 26.66 19.9305H27.06C27.1134 19.942 27.1685 19.9425 27.222 19.932C27.2755 19.9215 27.3263 19.9001 27.3713 19.8692C27.4163 19.8383 27.4544 19.7985 27.4834 19.7523C27.5124 19.706 27.5317 19.6544 27.54 19.6005C27.6 19.3005 27.67 18.9505 27.71 18.6005C27.7193 18.5415 27.7408 18.485 27.7732 18.4347C27.8055 18.3845 27.848 18.3415 27.8978 18.3086C27.9477 18.2757 28.0039 18.2535 28.0628 18.2435C28.1217 18.2335 28.1821 18.2359 28.24 18.2505L29.97 18.6705C30.0292 18.6849 30.0846 18.7118 30.1326 18.7493C30.1806 18.7868 30.2201 18.834 30.2484 18.8879C30.2768 18.9418 30.2934 19.0011 30.2971 19.0619C30.3008 19.1227 30.2916 19.1835 30.27 19.2405C30.19 19.4505 30.11 19.6805 30.03 19.9105C29.9951 20.0179 30.0038 20.1348 30.0543 20.2358C30.1048 20.3369 30.1931 20.414 30.3 20.4505C33.36 21.5205 35.3 23.9205 35.3 26.8705C35.3 30.7105 32.94 34.2105 26.66 35.2805C26.5747 35.2955 26.4868 35.2856 26.407 35.2519C26.3272 35.2181 26.2588 35.1621 26.21 35.0905L25.14 33.6705C25.1002 33.6107 25.0763 33.5418 25.0708 33.4702C25.0652 33.3986 25.0781 33.3268 25.1082 33.2616C25.1382 33.1964 25.1845 33.1399 25.2426 33.0977C25.3007 33.0555 25.3687 33.0289 25.44 33.0205C30.08 32.3005 32.52 29.8005 32.52 26.8005C32.5102 25.8687 32.2075 24.9635 31.6547 24.2133C31.1019 23.4631 30.3271 22.9059 29.44 22.6205C29.3351 22.5845 29.2204 22.5904 29.1198 22.637C29.0192 22.6836 28.9404 22.7672 28.9 22.8705C27.6813 25.9289 25.7755 28.6661 23.33 30.8705C23.269 30.9241 23.2244 30.9938 23.2014 31.0717C23.1784 31.1495 23.1779 31.2323 23.2 31.3105C23.34 31.8171 23.49 32.3071 23.65 32.7805C23.6844 32.8919 23.6732 33.0124 23.6188 33.1155C23.5644 33.2186 23.4714 33.2959 23.36 33.3305L21.78 33.8005C21.78 33.8005 21.3 33.9605 21.21 33.6605C21.12 33.3605 21 32.9805 20.89 32.6005C19.5389 33.4009 18.0093 33.8512 16.44 33.9105C14.56 33.9105 13 32.7705 13 30.2505C13 26.8005 15.89 23.2505 19.57 21.4405C19.6376 21.4062 19.6953 21.3551 19.7373 21.292C19.7794 21.2289 19.8044 21.1561 19.81 21.0805C19.87 19.9005 19.97 18.7105 20.07 17.6205H18.73C17.58 17.6205 15.73 17.5105 14.54 17.4405C14.4328 17.4356 14.3314 17.3908 14.2555 17.315C14.1797 17.2391 14.1349 17.1376 14.13 17.0305V15.4005C14.1261 15.3373 14.1365 15.274 14.1605 15.2154C14.1845 15.1567 14.2215 15.1043 14.2686 15.062C14.3157 15.0197 14.3718 14.9885 14.4327 14.9709C14.4935 14.9534 14.5576 14.9498 14.62 14.9605C16.0311 15.1254 17.4495 15.2189 18.87 15.2405H19.97C20.0784 15.2385 20.1822 15.1965 20.2615 15.1227C20.3409 15.0489 20.3902 14.9484 20.4 14.8405C20.45 14.3205 20.51 13.8405 20.56 13.4105C20.61 12.9805 20.62 12.7105 20.63 12.4105C20.6313 12.3545 20.6437 12.2992 20.6667 12.2481C20.6896 12.197 20.7226 12.1509 20.7636 12.1127C20.8046 12.0745 20.8528 12.0449 20.9055 12.0256C20.9581 12.0064 21.014 11.9978 21.07 12.0005H22.64C22.64 12.0005 23.48 12.0005 23.27 12.6805C23.19 12.9605 23.14 13.1905 23.14 13.3705ZM17.05 31.3705C18.141 31.3162 19.1975 30.9709 20.11 30.3705C20.1836 30.3256 20.242 30.2597 20.2777 30.1812C20.3133 30.1028 20.3246 30.0154 20.31 29.9305C20.0079 28.2456 19.8275 26.5412 19.77 24.8305C19.7696 24.7506 19.7469 24.6725 19.7045 24.6048C19.6621 24.5371 19.6017 24.4826 19.5301 24.4473C19.4585 24.412 19.3784 24.3973 19.2989 24.4049C19.2194 24.4126 19.1436 24.4422 19.08 24.4905C17.01 25.9705 15.61 28.1105 15.61 29.8805C15.61 30.8105 16.07 31.3705 17.05 31.3705ZM22.44 27.5105C22.4519 27.5919 22.4869 27.6682 22.5409 27.7303C22.5948 27.7925 22.6655 27.8378 22.7445 27.861C22.8234 27.8841 22.9074 27.8841 22.9864 27.861C23.0653 27.8379 23.136 27.7926 23.19 27.7305C24.5627 26.197 25.6833 24.4553 26.51 22.5705C26.71 22.1505 26.32 22.1505 26.23 22.1505C24.9671 22.1553 23.7137 22.3682 22.52 22.7805C22.4075 22.8127 22.3097 22.8834 22.244 22.9802C22.1782 23.0771 22.1485 23.194 22.16 23.3105V23.5605C22.1637 24.8687 22.2572 26.1751 22.44 27.4705V27.5105Z" fill="currentColor"/>
</svg>
