<svg width="48" height="48" viewBox="0 0 48 48" fill="currentColor" xmlns="http://www.w3.org/2000/svg">
<g clip-path="url(#clip0_2574_65996)">
<path d="M36.38 11.6C33.9325 9.15277 30.8143 7.48623 27.4197 6.81113C24.0251 6.13604 20.5065 6.4827 17.3089 7.80729C14.1113 9.13187 11.3783 11.3749 9.45543 14.2527C7.53258 17.1305 6.50627 20.5139 6.50627 23.975C6.50627 27.4361 7.53258 30.8195 9.45543 33.6973C11.3783 36.5751 14.1113 38.8182 17.3089 40.1427C20.5065 41.4673 24.0251 41.814 27.4197 41.1389C30.8143 40.4638 33.9325 38.7973 36.38 36.35C39.6598 33.0668 41.5021 28.6158 41.5021 23.975C41.5021 19.3342 39.6598 14.8832 36.38 11.6V11.6ZM14.28 33.7C11.9428 31.3498 10.5325 28.2348 10.3084 24.9279C10.0842 21.6209 11.0613 18.3442 13.06 15.7L32.32 34.96C29.6716 36.9684 26.3857 37.9503 23.0696 37.7242C19.7535 37.4981 16.6313 36.0793 14.28 33.73V33.7ZM34.95 32.29L15.69 13.03C18.3349 11.0088 21.6236 10.0165 24.945 10.2375C28.2664 10.4585 31.3947 11.8778 33.7485 14.2316C36.1022 16.5854 37.5215 19.7136 37.7425 23.035C37.9635 26.3564 36.9712 29.6451 34.95 32.29Z" fill="currentColor"/>
</g>
<defs>
<clipPath id="clip0_2574_65996">
<rect width="35" height="35" fill="currentColor" transform="translate(6.5 6.5)"/>
</clipPath>
</defs>
</svg>
