<svg width="48" height="48" viewBox="0 0 48 48" fill="currentColor" xmlns="http://www.w3.org/2000/svg">
<path fill-rule="evenodd" clip-rule="evenodd" d="M40.1251 23.3359L9.73511 8.12591C9.52708 8.02227 9.29342 7.98128 9.06253 8.0079C8.83164 8.03453 8.61346 8.12764 8.43448 8.27591C8.2555 8.42418 8.12341 8.62123 8.05429 8.84314C7.98517 9.06504 7.98198 9.30222 8.04511 9.52591L11.6951 22.2559C11.7666 22.506 11.9174 22.726 12.1248 22.8829C12.3323 23.0398 12.585 23.1251 12.8451 23.1259H24.1051C24.4366 23.1259 24.7546 23.2576 24.989 23.492C25.2234 23.7265 25.3551 24.0444 25.3551 24.3759C25.3551 24.7074 25.2234 25.0254 24.989 25.2598C24.7546 25.4942 24.4366 25.6259 24.1051 25.6259H12.8451C12.5854 25.6283 12.3334 25.7142 12.1263 25.8709C11.9193 26.0276 11.7681 26.2467 11.6951 26.4959L8.04511 39.2559C7.98198 39.4796 7.98517 39.7168 8.05429 39.9387C8.12341 40.1606 8.2555 40.3577 8.43448 40.5059C8.61346 40.6542 8.83164 40.7473 9.06253 40.7739C9.29342 40.8005 9.52708 40.7596 9.73511 40.6559L40.1251 25.4459C40.3179 25.3453 40.4795 25.1937 40.5922 25.0077C40.705 24.8217 40.7646 24.6084 40.7646 24.3909C40.7646 24.1734 40.705 23.9601 40.5922 23.7741C40.4795 23.5881 40.3179 23.4365 40.1251 23.3359Z" fill="currentColor"/>
</svg>
