<svg width="48" height="48" viewBox="0 0 48 48" fill="currentColor" xmlns="http://www.w3.org/2000/svg">
<path fill-rule="evenodd" clip-rule="evenodd" d="M23.981 26C25.9588 26 27.8921 25.4135 29.5366 24.3147C31.1811 23.2159 32.4629 21.6541 33.2197 19.8269C33.9766 17.9996 34.1747 15.9889 33.7888 14.0491C33.403 12.1093 32.4505 10.3275 31.052 8.92894C29.6535 7.53041 27.8716 6.578 25.9318 6.19215C23.992 5.8063 21.9814 6.00434 20.1541 6.76121C18.3269 7.51809 16.7651 8.79983 15.6663 10.4443C14.5674 12.0888 13.981 14.0222 13.981 16C13.981 18.6522 15.0345 21.1957 16.9099 23.0711C18.7852 24.9465 21.3288 26 23.981 26Z" fill="currentColor"/>
<path fill-rule="evenodd" clip-rule="evenodd" d="M32.9909 26.0601C32.7837 25.8844 32.5242 25.7823 32.2528 25.7696C31.9815 25.757 31.7135 25.8345 31.4909 25.9901C29.3298 27.6191 26.6971 28.5002 23.9909 28.5002C21.2846 28.5002 18.652 27.6191 16.4909 25.9901C16.2698 25.8353 16.0036 25.7582 15.734 25.7709C15.4644 25.7835 15.2065 25.8853 15.0009 26.0601C13.1001 27.6471 11.5757 29.6367 10.538 31.8849C9.50033 34.1332 8.9753 36.584 9.00089 39.0601C9.00089 39.3201 9.00089 39.5801 9.00089 39.8401C9.01622 40.1515 9.15015 40.4451 9.37516 40.6608C9.60017 40.8765 9.89921 40.9979 10.2109 41.0001H37.7709C38.0816 40.9978 38.3795 40.8761 38.6029 40.6602C38.8263 40.4442 38.9581 40.1506 38.9709 39.8401C38.9709 39.5801 38.9709 39.3201 38.9709 39.0601C38.9983 36.5857 38.476 34.1361 37.4419 31.8881C36.4078 29.64 34.8875 27.6495 32.9909 26.0601Z" fill="currentColor"/>
</svg>
