<svg width="48" height="48" viewBox="0 0 48 48" fill="currentColor" xmlns="http://www.w3.org/2000/svg">
<path d="M32.4 24.1701C32.261 24.0579 32.1486 23.9163 32.0708 23.7555C31.993 23.5947 31.9517 23.4187 31.95 23.2401V7.70009C31.95 7.38184 32.0765 7.0766 32.3015 6.85155C32.5266 6.62651 32.8318 6.50008 33.15 6.50008H33.27C33.5877 6.49662 33.892 6.37133 34.12 6.15008C34.2318 6.03868 34.3203 5.90617 34.3804 5.76024C34.4405 5.61432 34.471 5.45791 34.47 5.3001V5.20009C34.47 4.88184 34.3436 4.5766 34.1185 4.35155C33.8935 4.12651 33.5883 4.00008 33.27 4.00008H15.63C15.4735 3.99821 15.3184 4.02828 15.174 4.08846C15.0295 4.14864 14.8989 4.23767 14.79 4.35009C14.6769 4.46099 14.5868 4.59321 14.525 4.7391C14.4632 4.88499 14.4309 5.04166 14.43 5.20009V5.3001C14.4326 5.61755 14.5599 5.92126 14.7844 6.14574C15.0088 6.37022 15.3126 6.49747 15.63 6.50008H15.75C16.0683 6.50008 16.3735 6.62651 16.5986 6.85155C16.8236 7.0766 16.95 7.38184 16.95 7.70009V23.2401C16.9483 23.4187 16.9071 23.5947 16.8293 23.7555C16.7515 23.9163 16.639 24.0579 16.5 24.1701C15.2185 25.2239 14.1603 26.5229 13.3876 27.9911C12.6148 29.4594 12.143 31.0671 12 32.7201C12 32.8772 12.0311 33.0328 12.0916 33.1778C12.152 33.3228 12.2405 33.4545 12.3521 33.5651C12.4637 33.6757 12.596 33.7632 12.7416 33.8224C12.8871 33.8816 13.0429 33.9114 13.2 33.9101H21.38C21.6983 33.9101 22.0035 34.0365 22.2286 34.2616C22.4536 34.4866 22.58 34.7918 22.58 35.1101V42.8001C22.5787 42.9572 22.6085 43.113 22.6677 43.2586C22.7269 43.4041 22.8144 43.5365 22.925 43.648C23.0356 43.7596 23.1673 43.8481 23.3123 43.9086C23.4573 43.969 23.6129 44.0001 23.77 44.0001H25.13C25.4483 44.0001 25.7535 43.8737 25.9786 43.6486C26.2036 43.4236 26.33 43.1184 26.33 42.8001V35.1101C26.33 34.7918 26.4565 34.4866 26.6815 34.2616C26.9066 34.0365 27.2118 33.9101 27.53 33.9101H35.71C35.9966 33.9113 36.2739 33.8083 36.4901 33.6201C36.6174 33.5063 36.7202 33.3679 36.7924 33.2132C36.8646 33.0585 36.9047 32.8907 36.91 32.7201C36.7652 31.0665 36.2917 29.4585 35.5172 27.9903C34.7428 26.5221 33.683 25.2233 32.4 24.1701ZM32.47 31.4101H16.47C16.2678 31.4098 16.0689 31.3588 15.8914 31.2618C15.714 31.1648 15.5636 31.0248 15.4542 30.8547C15.3448 30.6846 15.2798 30.4898 15.2651 30.2881C15.2504 30.0864 15.2864 29.8843 15.37 29.7001C16.0648 28.1608 17.1383 26.8225 18.4901 25.8101L19.01 25.4201C19.164 25.3038 19.2878 25.1523 19.3713 24.9783C19.4548 24.8044 19.4956 24.613 19.4901 24.4201V7.70009C19.4927 7.38092 19.6213 7.0757 19.848 6.85094C20.0746 6.62618 20.3808 6.50007 20.7 6.50008H28.29C28.4476 6.50008 28.6037 6.53112 28.7493 6.59142C28.8949 6.65173 29.0271 6.74012 29.1385 6.85155C29.25 6.96298 29.3384 7.09528 29.3987 7.24087C29.459 7.38646 29.4901 7.54251 29.4901 7.70009V24.4601C29.4845 24.653 29.5252 24.8444 29.6087 25.0183C29.6922 25.1923 29.8161 25.3438 29.97 25.4601L30.4901 25.8501C31.8413 26.8656 32.9172 28.2028 33.62 29.7401C33.694 29.9264 33.7209 30.1281 33.6984 30.3273C33.6758 30.5265 33.6046 30.717 33.4909 30.8821C33.3772 31.0472 33.2246 31.1818 33.0465 31.2739C32.8685 31.3659 32.6705 31.4127 32.47 31.4101Z" fill="currentColor"/>
</svg>
