<svg width="48" height="48" viewBox="0 0 48 48" fill="currentColor" xmlns="http://www.w3.org/2000/svg">
<path d="M32.41 24.2C32.2704 24.0883 32.1576 23.9468 32.0798 23.7859C32.0019 23.625 31.961 23.4488 31.96 23.27V7.70001C31.9586 7.5429 31.9885 7.38708 32.0477 7.24155C32.1069 7.09601 32.1943 6.96364 32.3049 6.85208C32.4156 6.74052 32.5472 6.65198 32.6923 6.59155C32.8373 6.53113 32.9928 6.49999 33.15 6.5H33.27C33.5877 6.49654 33.892 6.37125 34.12 6.14999C34.2318 6.0386 34.3203 5.90609 34.3804 5.76016C34.4405 5.61424 34.4709 5.45783 34.47 5.30002V5.20001C34.47 4.88175 34.3436 4.57651 34.1185 4.35147C33.8935 4.12643 33.5882 4 33.27 4H15.64C15.3217 4 15.0165 4.12643 14.7914 4.35147C14.5664 4.57651 14.44 4.88175 14.44 5.20001V5.30002C14.4391 5.45783 14.4695 5.61424 14.5296 5.76016C14.5897 5.90609 14.6782 6.0386 14.79 6.14999C15.018 6.37125 15.3222 6.49654 15.64 6.5H15.7599C15.9171 6.49999 16.0727 6.53113 16.2177 6.59155C16.3627 6.65198 16.4943 6.74052 16.605 6.85208C16.7156 6.96364 16.8031 7.09601 16.8623 7.24155C16.9215 7.38708 16.9513 7.5429 16.95 7.70001V23.27C16.9489 23.4488 16.9081 23.625 16.8302 23.7859C16.7523 23.9468 16.6395 24.0883 16.5 24.2C15.2201 25.2553 14.1631 26.5547 13.3905 28.0226C12.6179 29.4906 12.1452 31.0976 12 32.75C12.0026 33.0665 12.1302 33.3692 12.355 33.5921C12.5797 33.815 12.8834 33.94 13.2 33.94H21.41C21.7282 33.94 22.0334 34.0664 22.2585 34.2915C22.4835 34.5165 22.61 34.8218 22.61 35.14V42.8C22.61 43.1183 22.7364 43.4235 22.9614 43.6485C23.1865 43.8736 23.4917 44 23.81 44H25.16C25.4782 44 25.7834 43.8736 26.0085 43.6485C26.2335 43.4235 26.36 43.1183 26.36 42.8V35.14C26.36 34.8218 26.4864 34.5165 26.7114 34.2915C26.9365 34.0664 27.2417 33.94 27.56 33.94H35.74C36.0565 33.94 36.3602 33.815 36.585 33.5921C36.8097 33.3692 36.9374 33.0665 36.94 32.75C36.791 31.0953 36.3136 29.487 35.5358 28.0189C34.758 26.5509 33.6954 25.2526 32.41 24.2Z" fill="currentColor"/>
</svg>
