<svg width="48" height="48" viewBox="0 0 48 48" fill="#ffffff" xmlns="http://www.w3.org/2000/svg">
<path d="M40.23 22.5812L13.8 7.16118C13.6204 7.05736 13.417 7.00182 13.2096 7.00004C13.0022 6.99827 12.7979 7.05032 12.6166 7.15104C12.4353 7.25177 12.2832 7.39778 12.1751 7.57481C12.067 7.75185 12.0067 7.95387 12 8.16118V39.0011C12.0067 39.2084 12.067 39.4105 12.1751 39.5875C12.2832 39.7645 12.4353 39.9105 12.6166 40.0113C12.7979 40.112 13.0022 40.164 13.2096 40.1622C13.417 40.1604 13.6204 40.105 13.8 40.0011L40.23 24.5812C40.3972 24.4733 40.5347 24.3253 40.6299 24.1506C40.7251 23.9759 40.7749 23.7801 40.7749 23.5812C40.7749 23.3822 40.7251 23.1864 40.6299 23.0117C40.5347 22.837 40.3972 22.689 40.23 22.5812Z" fill="currentColor"/>
</svg>
