<svg width="48" height="48" viewBox="0 0 48 48" fill="currentColor" xmlns="http://www.w3.org/2000/svg">
<path d="M39.8 21H27.2C27.0429 21.0013 26.8871 20.9715 26.7415 20.9123C26.596 20.8531 26.4636 20.7657 26.3521 20.655C26.2405 20.5444 26.152 20.4128 26.0916 20.2677C26.0311 20.1227 26 19.9671 26 19.81V7.20001C26 6.88175 25.8735 6.57651 25.6485 6.35147C25.4235 6.12643 25.1182 6 24.8 6H22.2C21.8818 6 21.5765 6.12643 21.3515 6.35147C21.1265 6.57651 21 6.88175 21 7.20001V19.81C21 19.9671 20.9689 20.1227 20.9084 20.2677C20.848 20.4128 20.7595 20.5444 20.6479 20.655C20.5364 20.7657 20.404 20.8531 20.2585 20.9123C20.113 20.9715 19.9571 21.0013 19.8 21H7.20001C6.88175 21 6.57651 21.1264 6.35147 21.3515C6.12643 21.5765 6 21.8818 6 22.2V24.81C5.99999 24.9671 6.03109 25.1227 6.09152 25.2677C6.15195 25.4128 6.24052 25.5444 6.35208 25.655C6.46364 25.7657 6.59601 25.8531 6.74155 25.9123C6.88708 25.9715 7.0429 26.0013 7.20001 26H19.8C20.1182 26 20.4235 26.1264 20.6485 26.3515C20.8735 26.5765 21 26.8818 21 27.2V39.81C21 39.9671 21.0311 40.1227 21.0916 40.2677C21.152 40.4128 21.2405 40.5444 21.3521 40.655C21.4636 40.7657 21.596 40.8531 21.7415 40.9123C21.887 40.9715 22.0429 41.0013 22.2 41H24.8C24.9571 41.0013 25.1129 40.9715 25.2585 40.9123C25.404 40.8531 25.5364 40.7657 25.6479 40.655C25.7595 40.5444 25.848 40.4128 25.9084 40.2677C25.9689 40.1227 26 39.9671 26 39.81V27.2C26 26.8818 26.1265 26.5765 26.3515 26.3515C26.5765 26.1264 26.8818 26 27.2 26H39.8C39.9571 26.0013 40.1129 25.9715 40.2585 25.9123C40.404 25.8531 40.5364 25.7657 40.6479 25.655C40.7595 25.5444 40.848 25.4128 40.9084 25.2677C40.9689 25.1227 41 24.9671 41 24.81V22.2C41 22.0424 40.9689 21.8864 40.9086 21.7408C40.8483 21.5952 40.7599 21.4629 40.6485 21.3515C40.5371 21.24 40.4048 21.1516 40.2592 21.0913C40.1136 21.031 39.9576 21 39.8 21Z" fill="currentColor"/>
</svg>
