<svg width="48" height="48" viewBox="0 0 48 48" fill="currentColor" xmlns="http://www.w3.org/2000/svg">
<path d="M29.88 9H5.2C4.53726 9 4 9.53727 4 10.2V37.8C4 38.4628 4.53726 39 5.2 39H29.88C30.5427 39 31.08 38.4628 31.08 37.8V10.2C31.08 9.53727 30.5427 9 29.88 9Z" fill="currentColor"/>
<path d="M42.8 19.8301H34.78C34.1173 19.8301 33.58 20.3673 33.58 21.0301V26.9601C33.58 27.6228 34.1173 28.1601 34.78 28.1601H42.8C43.4628 28.1601 44 27.6228 44 26.9601V21.0301C44 20.3673 43.4628 19.8301 42.8 19.8301Z" fill="currentColor"/>
<path d="M42.8 9H34.78C34.1173 9 33.58 9.53727 33.58 10.2V16.13C33.58 16.7927 34.1173 17.33 34.78 17.33H42.8C43.4628 17.33 44 16.7927 44 16.13V10.2C44 9.53727 43.4628 9 42.8 9Z" fill="currentColor"/>
<path d="M42.8 30.66H34.78C34.1173 30.66 33.58 31.1973 33.58 31.86V37.79C33.58 38.4528 34.1173 38.9901 34.78 38.9901H42.8C43.4628 38.9901 44 38.4528 44 37.79V31.86C44 31.1973 43.4628 30.66 42.8 30.66Z" fill="currentColor"/>
</svg>
