<svg width="48" height="48" viewBox="0 0 48 48" fill="currentColor" xmlns="http://www.w3.org/2000/svg">
<path d="M42.75 25.25H26.45C25.7873 25.25 25.25 25.7873 25.25 26.45V37.8C25.25 38.4628 25.7873 39 26.45 39H42.75C43.4127 39 43.95 38.4628 43.95 37.8V26.45C43.95 25.7873 43.4127 25.25 42.75 25.25Z" fill="currentColor"/>
<path d="M42.75 9H26.45C25.7873 9 25.25 9.53727 25.25 10.2V21.55C25.25 22.2128 25.7873 22.75 26.45 22.75H42.75C43.4127 22.75 43.95 22.2128 43.95 21.55V10.2C43.95 9.53727 43.4127 9 42.75 9Z" fill="currentColor"/>
<path d="M21.55 9H5.2C4.53726 9 4 9.53727 4 10.2V21.55C4 22.2128 4.53726 22.75 5.2 22.75H21.55C22.2127 22.75 22.75 22.2128 22.75 21.55V10.2C22.75 9.53727 22.2127 9 21.55 9Z" fill="currentColor"/>
<path d="M21.55 25.25H5.2C4.53726 25.25 4 25.7873 4 26.45V37.8C4 38.4628 4.53726 39 5.2 39H21.55C22.2127 39 22.75 38.4628 22.75 37.8V26.45C22.75 25.7873 22.2127 25.25 21.55 25.25Z" fill="currentColor"/>
</svg>
