<svg width="48" height="48" viewBox="0 0 48 48" fill="currentColor" xmlns="http://www.w3.org/2000/svg">
<g clip-path="url(#clip0)">
<path d="M32.07 16.79H15.79C15.1273 16.79 14.59 17.3273 14.59 17.99V29.69C14.59 30.3527 15.1273 30.89 15.79 30.89H32.07C32.7327 30.89 33.27 30.3527 33.27 29.69V17.99C33.27 17.3273 32.7327 16.79 32.07 16.79Z" fill="currentColor"/>
<path d="M11.23 33H4.86C4.38504 33 4 33.385 4 33.86V38.14C4 38.615 4.38504 39 4.86 39H11.23C11.705 39 12.09 38.615 12.09 38.14V33.86C12.09 33.385 11.705 33 11.23 33Z" fill="currentColor"/>
<path d="M11.23 24.9H4.86C4.38504 24.9 4 25.285 4 25.76V30.04C4 30.515 4.38504 30.9 4.86 30.9H11.23C11.705 30.9 12.09 30.515 12.09 30.04V25.76C12.09 25.285 11.705 24.9 11.23 24.9Z" fill="currentColor"/>
<path d="M11.23 16.79H4.86C4.38504 16.79 4 17.175 4 17.65V21.93C4 22.405 4.38504 22.79 4.86 22.79H11.23C11.705 22.79 12.09 22.405 12.09 21.93V17.65C12.09 17.175 11.705 16.79 11.23 16.79Z" fill="currentColor"/>
<path d="M42.99 24.9H36.62C36.145 24.9 35.76 25.285 35.76 25.76V30.04C35.76 30.515 36.145 30.9 36.62 30.9H42.99C43.465 30.9 43.85 30.515 43.85 30.04V25.76C43.85 25.285 43.465 24.9 42.99 24.9Z" fill="currentColor"/>
<path d="M42.99 16.79H36.62C36.145 16.79 35.76 17.175 35.76 17.65V21.93C35.76 22.405 36.145 22.79 36.62 22.79H42.99C43.465 22.79 43.85 22.405 43.85 21.93V17.65C43.85 17.175 43.465 16.79 42.99 16.79Z" fill="currentColor"/>
<path d="M21.82 33H15.45C14.975 33 14.59 33.385 14.59 33.86V38.14C14.59 38.615 14.975 39 15.45 39H21.82C22.295 39 22.68 38.615 22.68 38.14V33.86C22.68 33.385 22.295 33 21.82 33Z" fill="currentColor"/>
<path d="M32.41 33H26.04C25.565 33 25.18 33.385 25.18 33.86V38.14C25.18 38.615 25.565 39 26.04 39H32.41C32.885 39 33.27 38.615 33.27 38.14V33.86C33.27 33.385 32.885 33 32.41 33Z" fill="currentColor"/>
<path d="M42.99 33H36.62C36.145 33 35.76 33.385 35.76 33.86V38.14C35.76 38.615 36.145 39 36.62 39H42.99C43.465 39 43.85 38.615 43.85 38.14V33.86C43.85 33.385 43.465 33 42.99 33Z" fill="currentColor"/>
<path d="M11.23 9H4.86C4.38504 9 4 9.38504 4 9.86V14.14C4 14.615 4.38504 15 4.86 15H11.23C11.705 15 12.09 14.615 12.09 14.14V9.86C12.09 9.38504 11.705 9 11.23 9Z" fill="currentColor"/>
<path d="M21.82 9H15.45C14.975 9 14.59 9.38504 14.59 9.86V14.14C14.59 14.615 14.975 15 15.45 15H21.82C22.295 15 22.68 14.615 22.68 14.14V9.86C22.68 9.38504 22.295 9 21.82 9Z" fill="currentColor"/>
<path d="M32.41 9H26.04C25.565 9 25.18 9.38504 25.18 9.86V14.14C25.18 14.615 25.565 15 26.04 15H32.41C32.885 15 33.27 14.615 33.27 14.14V9.86C33.27 9.38504 32.885 9 32.41 9Z" fill="currentColor"/>
<path d="M42.99 9H36.62C36.145 9 35.76 9.38504 35.76 9.86V14.14C35.76 14.615 36.145 15 36.62 15H42.99C43.465 15 43.85 14.615 43.85 14.14V9.86C43.85 9.38504 43.465 9 42.99 9Z" fill="currentColor"/>
</g>
<defs>
<clipPath id="clip0">
<rect width="39.85" height="30" fill="currentColor" transform="translate(4 9)"/>
</clipPath>
</defs>
</svg>
