<svg width="48" height="48" viewBox="0 0 48 48" fill="currentColor" xmlns="http://www.w3.org/2000/svg">
<path d="M24.22 14.42C27.0974 14.42 29.43 12.0874 29.43 9.20996C29.43 6.33256 27.0974 4 24.22 4C21.3426 4 19.01 6.33256 19.01 9.20996C19.01 12.0874 21.3426 14.42 24.22 14.42Z" fill="currentColor"/>
<path d="M24.21 43.9899C27.0874 43.9899 29.42 41.6573 29.42 38.7799C29.42 35.9025 27.0874 33.5699 24.21 33.5699C21.3326 33.5699 19 35.9025 19 38.7799C19 41.6573 21.3326 43.9899 24.21 43.9899Z" fill="currentColor"/>
<path d="M24.22 29.1999C27.0974 29.1999 29.43 26.8673 29.43 23.9899C29.43 21.1125 27.0974 18.7799 24.22 18.7799C21.3426 18.7799 19.01 21.1125 19.01 23.9899C19.01 26.8673 21.3426 29.1999 24.22 29.1999Z" fill="currentColor"/>
</svg>
