<svg width="48" height="48" viewBox="0 0 48 48" fill="currentColor" xmlns="http://www.w3.org/2000/svg">
<g clip-path="url(#clip0_2574_65979)">
<path d="M27.5327 23.7817C29.4853 21.829 29.4853 18.6632 27.5327 16.7106C25.5801 14.758 22.4142 14.758 20.4616 16.7106C18.509 18.6632 18.509 21.829 20.4616 23.7817C22.4142 25.7343 25.5801 25.7343 27.5327 23.7817Z" fill="currentColor"/>
<path d="M28.5 25.28C28.3922 25.1981 28.2604 25.1537 28.125 25.1537C27.9896 25.1537 27.8579 25.1981 27.75 25.28C26.6685 26.0994 25.3468 26.5388 23.99 26.53C22.6409 26.5293 21.3284 26.0906 20.25 25.28C20.1422 25.1981 20.0104 25.1537 19.875 25.1537C19.7396 25.1537 19.6079 25.1981 19.5 25.28C18.5504 26.0742 17.7888 27.0691 17.27 28.1931C16.7513 29.3171 16.4883 30.5421 16.5 31.78C16.5 31.91 16.5 32.04 16.5 32.17C16.5052 32.3257 16.5707 32.4732 16.6827 32.5814C16.7947 32.6896 16.9443 32.7501 17.1 32.75H30.88C31.0357 32.7501 31.1854 32.6896 31.2974 32.5814C31.4093 32.4732 31.4748 32.3257 31.48 32.17C31.48 32.04 31.48 31.91 31.48 31.78C31.4942 30.5437 31.2343 29.3197 30.7191 28.1958C30.2038 27.0719 29.446 26.0761 28.5 25.28V25.28Z" fill="currentColor"/>
<path d="M10.5 7.76C10.8479 7.76 11.13 7.47794 11.13 7.13C11.13 6.78206 10.8479 6.5 10.5 6.5C10.1521 6.5 9.87 6.78206 9.87 7.13C9.87 7.47794 10.1521 7.76 10.5 7.76Z" fill="currentColor"/>
<path d="M7.13 7.76C7.47794 7.76 7.76 7.47794 7.76 7.13C7.76 6.78206 7.47794 6.5 7.13 6.5C6.78206 6.5 6.5 6.78206 6.5 7.13C6.5 7.47794 6.78206 7.76 7.13 7.76Z" fill="currentColor"/>
<path d="M40.88 7.76C41.2279 7.76 41.51 7.47794 41.51 7.13C41.51 6.78206 41.2279 6.5 40.88 6.5C40.5321 6.5 40.25 6.78206 40.25 7.13C40.25 7.47794 40.5321 7.76 40.88 7.76Z" fill="currentColor"/>
<path d="M17.25 7.76C17.5979 7.76 17.88 7.47794 17.88 7.13C17.88 6.78206 17.5979 6.5 17.25 6.5C16.9021 6.5 16.62 6.78206 16.62 7.13C16.62 7.47794 16.9021 7.76 17.25 7.76Z" fill="currentColor"/>
<path d="M20.63 7.76C20.9779 7.76 21.26 7.47794 21.26 7.13C21.26 6.78206 20.9779 6.5 20.63 6.5C20.2821 6.5 20 6.78206 20 7.13C20 7.47794 20.2821 7.76 20.63 7.76Z" fill="currentColor"/>
<path d="M13.88 7.76C14.2279 7.76 14.51 7.47794 14.51 7.13C14.51 6.78206 14.2279 6.5 13.88 6.5C13.5321 6.5 13.25 6.78206 13.25 7.13C13.25 7.47794 13.5321 7.76 13.88 7.76Z" fill="currentColor"/>
<path d="M24 7.76C24.3479 7.76 24.63 7.47794 24.63 7.13C24.63 6.78206 24.3479 6.5 24 6.5C23.6521 6.5 23.37 6.78206 23.37 7.13C23.37 7.47794 23.6521 7.76 24 7.76Z" fill="currentColor"/>
<path d="M30.75 7.76C31.0979 7.76 31.38 7.47794 31.38 7.13C31.38 6.78206 31.0979 6.5 30.75 6.5C30.4021 6.5 30.12 6.78206 30.12 7.13C30.12 7.47794 30.4021 7.76 30.75 7.76Z" fill="currentColor"/>
<path d="M34.13 7.76C34.4779 7.76 34.76 7.47794 34.76 7.13C34.76 6.78206 34.4779 6.5 34.13 6.5C33.7821 6.5 33.5 6.78206 33.5 7.13C33.5 7.47794 33.7821 7.76 34.13 7.76Z" fill="currentColor"/>
<path d="M27.38 7.76C27.7279 7.76 28.01 7.47794 28.01 7.13C28.01 6.78206 27.7279 6.5 27.38 6.5C27.0321 6.5 26.75 6.78206 26.75 7.13C26.75 7.47794 27.0321 7.76 27.38 7.76Z" fill="currentColor"/>
<path d="M37.5 7.76C37.8479 7.76 38.13 7.47794 38.13 7.13C38.13 6.78206 37.8479 6.5 37.5 6.5C37.1521 6.5 36.87 6.78206 36.87 7.13C36.87 7.47794 37.1521 7.76 37.5 7.76Z" fill="currentColor"/>
<path d="M10.5 11.13C10.8479 11.13 11.13 10.8479 11.13 10.5C11.13 10.1521 10.8479 9.87 10.5 9.87C10.1521 9.87 9.87 10.1521 9.87 10.5C9.87 10.8479 10.1521 11.13 10.5 11.13Z" fill="currentColor"/>
<path d="M40.88 11.13C41.2279 11.13 41.51 10.8479 41.51 10.5C41.51 10.1521 41.2279 9.87 40.88 9.87C40.5321 9.87 40.25 10.1521 40.25 10.5C40.25 10.8479 40.5321 11.13 40.88 11.13Z" fill="currentColor"/>
<path d="M17.25 11.13C17.5979 11.13 17.88 10.8479 17.88 10.5C17.88 10.1521 17.5979 9.87 17.25 9.87C16.9021 9.87 16.62 10.1521 16.62 10.5C16.62 10.8479 16.9021 11.13 17.25 11.13Z" fill="currentColor"/>
<path d="M20.63 11.13C20.9779 11.13 21.26 10.8479 21.26 10.5C21.26 10.1521 20.9779 9.87 20.63 9.87C20.2821 9.87 20 10.1521 20 10.5C20 10.8479 20.2821 11.13 20.63 11.13Z" fill="currentColor"/>
<path d="M13.88 11.13C14.2279 11.13 14.51 10.8479 14.51 10.5C14.51 10.1521 14.2279 9.87 13.88 9.87C13.5321 9.87 13.25 10.1521 13.25 10.5C13.25 10.8479 13.5321 11.13 13.88 11.13Z" fill="currentColor"/>
<path d="M24 11.13C24.3479 11.13 24.63 10.8479 24.63 10.5C24.63 10.1521 24.3479 9.87 24 9.87C23.6521 9.87 23.37 10.1521 23.37 10.5C23.37 10.8479 23.6521 11.13 24 11.13Z" fill="currentColor"/>
<path d="M30.75 11.13C31.0979 11.13 31.38 10.8479 31.38 10.5C31.38 10.1521 31.0979 9.87 30.75 9.87C30.4021 9.87 30.12 10.1521 30.12 10.5C30.12 10.8479 30.4021 11.13 30.75 11.13Z" fill="currentColor"/>
<path d="M34.13 11.13C34.4779 11.13 34.76 10.8479 34.76 10.5C34.76 10.1521 34.4779 9.87 34.13 9.87C33.7821 9.87 33.5 10.1521 33.5 10.5C33.5 10.8479 33.7821 11.13 34.13 11.13Z" fill="currentColor"/>
<path d="M27.38 11.13C27.7279 11.13 28.01 10.8479 28.01 10.5C28.01 10.1521 27.7279 9.87 27.38 9.87C27.0321 9.87 26.75 10.1521 26.75 10.5C26.75 10.8479 27.0321 11.13 27.38 11.13Z" fill="currentColor"/>
<path d="M37.5 11.13C37.8479 11.13 38.13 10.8479 38.13 10.5C38.13 10.1521 37.8479 9.87 37.5 9.87C37.1521 9.87 36.87 10.1521 36.87 10.5C36.87 10.8479 37.1521 11.13 37.5 11.13Z" fill="currentColor"/>
<path d="M7.13 11.13C7.47794 11.13 7.76 10.8479 7.76 10.5C7.76 10.1521 7.47794 9.87 7.13 9.87C6.78206 9.87 6.5 10.1521 6.5 10.5C6.5 10.8479 6.78206 11.13 7.13 11.13Z" fill="currentColor"/>
<path d="M10.5 14.51C10.8479 14.51 11.13 14.2279 11.13 13.88C11.13 13.5321 10.8479 13.25 10.5 13.25C10.1521 13.25 9.87 13.5321 9.87 13.88C9.87 14.2279 10.1521 14.51 10.5 14.51Z" fill="currentColor"/>
<path d="M40.88 14.51C41.2279 14.51 41.51 14.2279 41.51 13.88C41.51 13.5321 41.2279 13.25 40.88 13.25C40.5321 13.25 40.25 13.5321 40.25 13.88C40.25 14.2279 40.5321 14.51 40.88 14.51Z" fill="currentColor"/>
<path d="M17.25 14.51C17.5979 14.51 17.88 14.2279 17.88 13.88C17.88 13.5321 17.5979 13.25 17.25 13.25C16.9021 13.25 16.62 13.5321 16.62 13.88C16.62 14.2279 16.9021 14.51 17.25 14.51Z" fill="currentColor"/>
<path d="M20.63 14.51C20.9779 14.51 21.26 14.2279 21.26 13.88C21.26 13.5321 20.9779 13.25 20.63 13.25C20.2821 13.25 20 13.5321 20 13.88C20 14.2279 20.2821 14.51 20.63 14.51Z" fill="currentColor"/>
<path d="M13.88 14.51C14.2279 14.51 14.51 14.2279 14.51 13.88C14.51 13.5321 14.2279 13.25 13.88 13.25C13.5321 13.25 13.25 13.5321 13.25 13.88C13.25 14.2279 13.5321 14.51 13.88 14.51Z" fill="currentColor"/>
<path d="M24 14.51C24.3479 14.51 24.63 14.2279 24.63 13.88C24.63 13.5321 24.3479 13.25 24 13.25C23.6521 13.25 23.37 13.5321 23.37 13.88C23.37 14.2279 23.6521 14.51 24 14.51Z" fill="currentColor"/>
<path d="M30.75 14.51C31.0979 14.51 31.38 14.2279 31.38 13.88C31.38 13.5321 31.0979 13.25 30.75 13.25C30.4021 13.25 30.12 13.5321 30.12 13.88C30.12 14.2279 30.4021 14.51 30.75 14.51Z" fill="currentColor"/>
<path d="M34.13 14.51C34.4779 14.51 34.76 14.2279 34.76 13.88C34.76 13.5321 34.4779 13.25 34.13 13.25C33.7821 13.25 33.5 13.5321 33.5 13.88C33.5 14.2279 33.7821 14.51 34.13 14.51Z" fill="currentColor"/>
<path d="M27.38 14.51C27.7279 14.51 28.01 14.2279 28.01 13.88C28.01 13.5321 27.7279 13.25 27.38 13.25C27.0321 13.25 26.75 13.5321 26.75 13.88C26.75 14.2279 27.0321 14.51 27.38 14.51Z" fill="currentColor"/>
<path d="M37.5 14.51C37.8479 14.51 38.13 14.2279 38.13 13.88C38.13 13.5321 37.8479 13.25 37.5 13.25C37.1521 13.25 36.87 13.5321 36.87 13.88C36.87 14.2279 37.1521 14.51 37.5 14.51Z" fill="currentColor"/>
<path d="M7.13 14.51C7.47794 14.51 7.76 14.2279 7.76 13.88C7.76 13.5321 7.47794 13.25 7.13 13.25C6.78206 13.25 6.5 13.5321 6.5 13.88C6.5 14.2279 6.78206 14.51 7.13 14.51Z" fill="currentColor"/>
<path d="M10.5 17.88C10.8479 17.88 11.13 17.5979 11.13 17.25C11.13 16.9021 10.8479 16.62 10.5 16.62C10.1521 16.62 9.87 16.9021 9.87 17.25C9.87 17.5979 10.1521 17.88 10.5 17.88Z" fill="currentColor"/>
<path d="M40.88 17.88C41.2279 17.88 41.51 17.5979 41.51 17.25C41.51 16.9021 41.2279 16.62 40.88 16.62C40.5321 16.62 40.25 16.9021 40.25 17.25C40.25 17.5979 40.5321 17.88 40.88 17.88Z" fill="currentColor"/>
<path d="M17.25 17.88C17.5979 17.88 17.88 17.5979 17.88 17.25C17.88 16.9021 17.5979 16.62 17.25 16.62C16.9021 16.62 16.62 16.9021 16.62 17.25C16.62 17.5979 16.9021 17.88 17.25 17.88Z" fill="currentColor"/>
<path d="M13.88 17.88C14.2279 17.88 14.51 17.5979 14.51 17.25C14.51 16.9021 14.2279 16.62 13.88 16.62C13.5321 16.62 13.25 16.9021 13.25 17.25C13.25 17.5979 13.5321 17.88 13.88 17.88Z" fill="currentColor"/>
<path d="M30.75 17.88C31.0979 17.88 31.38 17.5979 31.38 17.25C31.38 16.9021 31.0979 16.62 30.75 16.62C30.4021 16.62 30.12 16.9021 30.12 17.25C30.12 17.5979 30.4021 17.88 30.75 17.88Z" fill="currentColor"/>
<path d="M34.13 17.88C34.4779 17.88 34.76 17.5979 34.76 17.25C34.76 16.9021 34.4779 16.62 34.13 16.62C33.7821 16.62 33.5 16.9021 33.5 17.25C33.5 17.5979 33.7821 17.88 34.13 17.88Z" fill="currentColor"/>
<path d="M37.5 17.88C37.8479 17.88 38.13 17.5979 38.13 17.25C38.13 16.9021 37.8479 16.62 37.5 16.62C37.1521 16.62 36.87 16.9021 36.87 17.25C36.87 17.5979 37.1521 17.88 37.5 17.88Z" fill="currentColor"/>
<path d="M7.13 17.88C7.47794 17.88 7.76 17.5979 7.76 17.25C7.76 16.9021 7.47794 16.62 7.13 16.62C6.78206 16.62 6.5 16.9021 6.5 17.25C6.5 17.5979 6.78206 17.88 7.13 17.88Z" fill="currentColor"/>
<path d="M10.5 21.26C10.8479 21.26 11.13 20.9779 11.13 20.63C11.13 20.2821 10.8479 20 10.5 20C10.1521 20 9.87 20.2821 9.87 20.63C9.87 20.9779 10.1521 21.26 10.5 21.26Z" fill="currentColor"/>
<path d="M40.88 21.26C41.2279 21.26 41.51 20.9779 41.51 20.63C41.51 20.2821 41.2279 20 40.88 20C40.5321 20 40.25 20.2821 40.25 20.63C40.25 20.9779 40.5321 21.26 40.88 21.26Z" fill="currentColor"/>
<path d="M17.25 21.26C17.5979 21.26 17.88 20.9779 17.88 20.63C17.88 20.2821 17.5979 20 17.25 20C16.9021 20 16.62 20.2821 16.62 20.63C16.62 20.9779 16.9021 21.26 17.25 21.26Z" fill="currentColor"/>
<path d="M13.88 21.26C14.2279 21.26 14.51 20.9779 14.51 20.63C14.51 20.2821 14.2279 20 13.88 20C13.5321 20 13.25 20.2821 13.25 20.63C13.25 20.9779 13.5321 21.26 13.88 21.26Z" fill="currentColor"/>
<path d="M30.75 21.26C31.0979 21.26 31.38 20.9779 31.38 20.63C31.38 20.2821 31.0979 20 30.75 20C30.4021 20 30.12 20.2821 30.12 20.63C30.12 20.9779 30.4021 21.26 30.75 21.26Z" fill="currentColor"/>
<path d="M34.13 21.26C34.4779 21.26 34.76 20.9779 34.76 20.63C34.76 20.2821 34.4779 20 34.13 20C33.7821 20 33.5 20.2821 33.5 20.63C33.5 20.9779 33.7821 21.26 34.13 21.26Z" fill="currentColor"/>
<path d="M37.5 21.26C37.8479 21.26 38.13 20.9779 38.13 20.63C38.13 20.2821 37.8479 20 37.5 20C37.1521 20 36.87 20.2821 36.87 20.63C36.87 20.9779 37.1521 21.26 37.5 21.26Z" fill="currentColor"/>
<path d="M7.13 21.26C7.47794 21.26 7.76 20.9779 7.76 20.63C7.76 20.2821 7.47794 20 7.13 20C6.78206 20 6.5 20.2821 6.5 20.63C6.5 20.9779 6.78206 21.26 7.13 21.26Z" fill="currentColor"/>
<path d="M10.5 24.63C10.8479 24.63 11.13 24.3479 11.13 24C11.13 23.6521 10.8479 23.37 10.5 23.37C10.1521 23.37 9.87 23.6521 9.87 24C9.87 24.3479 10.1521 24.63 10.5 24.63Z" fill="currentColor"/>
<path d="M40.88 24.63C41.2279 24.63 41.51 24.3479 41.51 24C41.51 23.6521 41.2279 23.37 40.88 23.37C40.5321 23.37 40.25 23.6521 40.25 24C40.25 24.3479 40.5321 24.63 40.88 24.63Z" fill="currentColor"/>
<path d="M17.25 24.63C17.5979 24.63 17.88 24.3479 17.88 24C17.88 23.6521 17.5979 23.37 17.25 23.37C16.9021 23.37 16.62 23.6521 16.62 24C16.62 24.3479 16.9021 24.63 17.25 24.63Z" fill="currentColor"/>
<path d="M13.88 24.63C14.2279 24.63 14.51 24.3479 14.51 24C14.51 23.6521 14.2279 23.37 13.88 23.37C13.5321 23.37 13.25 23.6521 13.25 24C13.25 24.3479 13.5321 24.63 13.88 24.63Z" fill="currentColor"/>
<path d="M30.75 24.63C31.0979 24.63 31.38 24.3479 31.38 24C31.38 23.6521 31.0979 23.37 30.75 23.37C30.4021 23.37 30.12 23.6521 30.12 24C30.12 24.3479 30.4021 24.63 30.75 24.63Z" fill="currentColor"/>
<path d="M34.13 24.63C34.4779 24.63 34.76 24.3479 34.76 24C34.76 23.6521 34.4779 23.37 34.13 23.37C33.7821 23.37 33.5 23.6521 33.5 24C33.5 24.3479 33.7821 24.63 34.13 24.63Z" fill="currentColor"/>
<path d="M37.5 24.63C37.8479 24.63 38.13 24.3479 38.13 24C38.13 23.6521 37.8479 23.37 37.5 23.37C37.1521 23.37 36.87 23.6521 36.87 24C36.87 24.3479 37.1521 24.63 37.5 24.63Z" fill="currentColor"/>
<path d="M7.13 24.63C7.47794 24.63 7.76 24.3479 7.76 24C7.76 23.6521 7.47794 23.37 7.13 23.37C6.78206 23.37 6.5 23.6521 6.5 24C6.5 24.3479 6.78206 24.63 7.13 24.63Z" fill="currentColor"/>
<path d="M10.5 28.01C10.8479 28.01 11.13 27.7279 11.13 27.38C11.13 27.0321 10.8479 26.75 10.5 26.75C10.1521 26.75 9.87 27.0321 9.87 27.38C9.87 27.7279 10.1521 28.01 10.5 28.01Z" fill="currentColor"/>
<path d="M40.88 28.01C41.2279 28.01 41.51 27.7279 41.51 27.38C41.51 27.0321 41.2279 26.75 40.88 26.75C40.5321 26.75 40.25 27.0321 40.25 27.38C40.25 27.7279 40.5321 28.01 40.88 28.01Z" fill="currentColor"/>
<path d="M13.88 28.01C14.2279 28.01 14.51 27.7279 14.51 27.38C14.51 27.0321 14.2279 26.75 13.88 26.75C13.5321 26.75 13.25 27.0321 13.25 27.38C13.25 27.7279 13.5321 28.01 13.88 28.01Z" fill="currentColor"/>
<path d="M34.13 28.01C34.4779 28.01 34.76 27.7279 34.76 27.38C34.76 27.0321 34.4779 26.75 34.13 26.75C33.7821 26.75 33.5 27.0321 33.5 27.38C33.5 27.7279 33.7821 28.01 34.13 28.01Z" fill="currentColor"/>
<path d="M37.5 28.01C37.8479 28.01 38.13 27.7279 38.13 27.38C38.13 27.0321 37.8479 26.75 37.5 26.75C37.1521 26.75 36.87 27.0321 36.87 27.38C36.87 27.7279 37.1521 28.01 37.5 28.01Z" fill="currentColor"/>
<path d="M7.13 28.01C7.47794 28.01 7.76 27.7279 7.76 27.38C7.76 27.0321 7.47794 26.75 7.13 26.75C6.78206 26.75 6.5 27.0321 6.5 27.38C6.5 27.7279 6.78206 28.01 7.13 28.01Z" fill="currentColor"/>
<path d="M10.5 31.38C10.8479 31.38 11.13 31.0979 11.13 30.75C11.13 30.4021 10.8479 30.12 10.5 30.12C10.1521 30.12 9.87 30.4021 9.87 30.75C9.87 31.0979 10.1521 31.38 10.5 31.38Z" fill="currentColor"/>
<path d="M40.88 31.38C41.2279 31.38 41.51 31.0979 41.51 30.75C41.51 30.4021 41.2279 30.12 40.88 30.12C40.5321 30.12 40.25 30.4021 40.25 30.75C40.25 31.0979 40.5321 31.38 40.88 31.38Z" fill="currentColor"/>
<path d="M13.88 31.38C14.2279 31.38 14.51 31.0979 14.51 30.75C14.51 30.4021 14.2279 30.12 13.88 30.12C13.5321 30.12 13.25 30.4021 13.25 30.75C13.25 31.0979 13.5321 31.38 13.88 31.38Z" fill="currentColor"/>
<path d="M34.13 31.38C34.4779 31.38 34.76 31.0979 34.76 30.75C34.76 30.4021 34.4779 30.12 34.13 30.12C33.7821 30.12 33.5 30.4021 33.5 30.75C33.5 31.0979 33.7821 31.38 34.13 31.38Z" fill="currentColor"/>
<path d="M37.5 31.38C37.8479 31.38 38.13 31.0979 38.13 30.75C38.13 30.4021 37.8479 30.12 37.5 30.12C37.1521 30.12 36.87 30.4021 36.87 30.75C36.87 31.0979 37.1521 31.38 37.5 31.38Z" fill="currentColor"/>
<path d="M7.13 31.38C7.47794 31.38 7.76 31.0979 7.76 30.75C7.76 30.4021 7.47794 30.12 7.13 30.12C6.78206 30.12 6.5 30.4021 6.5 30.75C6.5 31.0979 6.78206 31.38 7.13 31.38Z" fill="currentColor"/>
<path d="M10.5 34.76C10.8479 34.76 11.13 34.4779 11.13 34.13C11.13 33.7821 10.8479 33.5 10.5 33.5C10.1521 33.5 9.87 33.7821 9.87 34.13C9.87 34.4779 10.1521 34.76 10.5 34.76Z" fill="currentColor"/>
<path d="M40.88 34.76C41.2279 34.76 41.51 34.4779 41.51 34.13C41.51 33.7821 41.2279 33.5 40.88 33.5C40.5321 33.5 40.25 33.7821 40.25 34.13C40.25 34.4779 40.5321 34.76 40.88 34.76Z" fill="currentColor"/>
<path d="M17.25 34.76C17.5979 34.76 17.88 34.4779 17.88 34.13C17.88 33.7821 17.5979 33.5 17.25 33.5C16.9021 33.5 16.62 33.7821 16.62 34.13C16.62 34.4779 16.9021 34.76 17.25 34.76Z" fill="currentColor"/>
<path d="M20.63 34.76C20.9779 34.76 21.26 34.4779 21.26 34.13C21.26 33.7821 20.9779 33.5 20.63 33.5C20.2821 33.5 20 33.7821 20 34.13C20 34.4779 20.2821 34.76 20.63 34.76Z" fill="currentColor"/>
<path d="M13.88 34.76C14.2279 34.76 14.51 34.4779 14.51 34.13C14.51 33.7821 14.2279 33.5 13.88 33.5C13.5321 33.5 13.25 33.7821 13.25 34.13C13.25 34.4779 13.5321 34.76 13.88 34.76Z" fill="currentColor"/>
<path d="M24 34.76C24.3479 34.76 24.63 34.4779 24.63 34.13C24.63 33.7821 24.3479 33.5 24 33.5C23.6521 33.5 23.37 33.7821 23.37 34.13C23.37 34.4779 23.6521 34.76 24 34.76Z" fill="currentColor"/>
<path d="M30.75 34.76C31.0979 34.76 31.38 34.4779 31.38 34.13C31.38 33.7821 31.0979 33.5 30.75 33.5C30.4021 33.5 30.12 33.7821 30.12 34.13C30.12 34.4779 30.4021 34.76 30.75 34.76Z" fill="currentColor"/>
<path d="M34.13 34.76C34.4779 34.76 34.76 34.4779 34.76 34.13C34.76 33.7821 34.4779 33.5 34.13 33.5C33.7821 33.5 33.5 33.7821 33.5 34.13C33.5 34.4779 33.7821 34.76 34.13 34.76Z" fill="currentColor"/>
<path d="M27.38 34.76C27.7279 34.76 28.01 34.4779 28.01 34.13C28.01 33.7821 27.7279 33.5 27.38 33.5C27.0321 33.5 26.75 33.7821 26.75 34.13C26.75 34.4779 27.0321 34.76 27.38 34.76Z" fill="currentColor"/>
<path d="M37.5 34.76C37.8479 34.76 38.13 34.4779 38.13 34.13C38.13 33.7821 37.8479 33.5 37.5 33.5C37.1521 33.5 36.87 33.7821 36.87 34.13C36.87 34.4779 37.1521 34.76 37.5 34.76Z" fill="currentColor"/>
<path d="M7.13 34.76C7.47794 34.76 7.76 34.4779 7.76 34.13C7.76 33.7821 7.47794 33.5 7.13 33.5C6.78206 33.5 6.5 33.7821 6.5 34.13C6.5 34.4779 6.78206 34.76 7.13 34.76Z" fill="currentColor"/>
<path d="M10.5 38.13C10.8479 38.13 11.13 37.8479 11.13 37.5C11.13 37.1521 10.8479 36.87 10.5 36.87C10.1521 36.87 9.87 37.1521 9.87 37.5C9.87 37.8479 10.1521 38.13 10.5 38.13Z" fill="currentColor"/>
<path d="M40.88 38.13C41.2279 38.13 41.51 37.8479 41.51 37.5C41.51 37.1521 41.2279 36.87 40.88 36.87C40.5321 36.87 40.25 37.1521 40.25 37.5C40.25 37.8479 40.5321 38.13 40.88 38.13Z" fill="currentColor"/>
<path d="M17.25 38.13C17.5979 38.13 17.88 37.8479 17.88 37.5C17.88 37.1521 17.5979 36.87 17.25 36.87C16.9021 36.87 16.62 37.1521 16.62 37.5C16.62 37.8479 16.9021 38.13 17.25 38.13Z" fill="currentColor"/>
<path d="M20.63 38.13C20.9779 38.13 21.26 37.8479 21.26 37.5C21.26 37.1521 20.9779 36.87 20.63 36.87C20.2821 36.87 20 37.1521 20 37.5C20 37.8479 20.2821 38.13 20.63 38.13Z" fill="currentColor"/>
<path d="M13.88 38.13C14.2279 38.13 14.51 37.8479 14.51 37.5C14.51 37.1521 14.2279 36.87 13.88 36.87C13.5321 36.87 13.25 37.1521 13.25 37.5C13.25 37.8479 13.5321 38.13 13.88 38.13Z" fill="currentColor"/>
<path d="M24 38.13C24.3479 38.13 24.63 37.8479 24.63 37.5C24.63 37.1521 24.3479 36.87 24 36.87C23.6521 36.87 23.37 37.1521 23.37 37.5C23.37 37.8479 23.6521 38.13 24 38.13Z" fill="currentColor"/>
<path d="M30.75 38.13C31.0979 38.13 31.38 37.8479 31.38 37.5C31.38 37.1521 31.0979 36.87 30.75 36.87C30.4021 36.87 30.12 37.1521 30.12 37.5C30.12 37.8479 30.4021 38.13 30.75 38.13Z" fill="currentColor"/>
<path d="M34.13 38.13C34.4779 38.13 34.76 37.8479 34.76 37.5C34.76 37.1521 34.4779 36.87 34.13 36.87C33.7821 36.87 33.5 37.1521 33.5 37.5C33.5 37.8479 33.7821 38.13 34.13 38.13Z" fill="currentColor"/>
<path d="M27.38 38.13C27.7279 38.13 28.01 37.8479 28.01 37.5C28.01 37.1521 27.7279 36.87 27.38 36.87C27.0321 36.87 26.75 37.1521 26.75 37.5C26.75 37.8479 27.0321 38.13 27.38 38.13Z" fill="currentColor"/>
<path d="M37.5 38.13C37.8479 38.13 38.13 37.8479 38.13 37.5C38.13 37.1521 37.8479 36.87 37.5 36.87C37.1521 36.87 36.87 37.1521 36.87 37.5C36.87 37.8479 37.1521 38.13 37.5 38.13Z" fill="currentColor"/>
<path d="M7.13 38.13C7.47794 38.13 7.76 37.8479 7.76 37.5C7.76 37.1521 7.47794 36.87 7.13 36.87C6.78206 36.87 6.5 37.1521 6.5 37.5C6.5 37.8479 6.78206 38.13 7.13 38.13Z" fill="currentColor"/>
<path d="M10.5 41.51C10.8479 41.51 11.13 41.2279 11.13 40.88C11.13 40.5321 10.8479 40.25 10.5 40.25C10.1521 40.25 9.87 40.5321 9.87 40.88C9.87 41.2279 10.1521 41.51 10.5 41.51Z" fill="currentColor"/>
<path d="M40.88 41.51C41.2279 41.51 41.51 41.2279 41.51 40.88C41.51 40.5321 41.2279 40.25 40.88 40.25C40.5321 40.25 40.25 40.5321 40.25 40.88C40.25 41.2279 40.5321 41.51 40.88 41.51Z" fill="currentColor"/>
<path d="M17.25 41.51C17.5979 41.51 17.88 41.2279 17.88 40.88C17.88 40.5321 17.5979 40.25 17.25 40.25C16.9021 40.25 16.62 40.5321 16.62 40.88C16.62 41.2279 16.9021 41.51 17.25 41.51Z" fill="currentColor"/>
<path d="M20.63 41.51C20.9779 41.51 21.26 41.2279 21.26 40.88C21.26 40.5321 20.9779 40.25 20.63 40.25C20.2821 40.25 20 40.5321 20 40.88C20 41.2279 20.2821 41.51 20.63 41.51Z" fill="currentColor"/>
<path d="M13.88 41.51C14.2279 41.51 14.51 41.2279 14.51 40.88C14.51 40.5321 14.2279 40.25 13.88 40.25C13.5321 40.25 13.25 40.5321 13.25 40.88C13.25 41.2279 13.5321 41.51 13.88 41.51Z" fill="currentColor"/>
<path d="M24 41.51C24.3479 41.51 24.63 41.2279 24.63 40.88C24.63 40.5321 24.3479 40.25 24 40.25C23.6521 40.25 23.37 40.5321 23.37 40.88C23.37 41.2279 23.6521 41.51 24 41.51Z" fill="currentColor"/>
<path d="M30.75 41.51C31.0979 41.51 31.38 41.2279 31.38 40.88C31.38 40.5321 31.0979 40.25 30.75 40.25C30.4021 40.25 30.12 40.5321 30.12 40.88C30.12 41.2279 30.4021 41.51 30.75 41.51Z" fill="currentColor"/>
<path d="M34.13 41.51C34.4779 41.51 34.76 41.2279 34.76 40.88C34.76 40.5321 34.4779 40.25 34.13 40.25C33.7821 40.25 33.5 40.5321 33.5 40.88C33.5 41.2279 33.7821 41.51 34.13 41.51Z" fill="currentColor"/>
<path d="M27.38 41.51C27.7279 41.51 28.01 41.2279 28.01 40.88C28.01 40.5321 27.7279 40.25 27.38 40.25C27.0321 40.25 26.75 40.5321 26.75 40.88C26.75 41.2279 27.0321 41.51 27.38 41.51Z" fill="currentColor"/>
<path d="M37.5 41.51C37.8479 41.51 38.13 41.2279 38.13 40.88C38.13 40.5321 37.8479 40.25 37.5 40.25C37.1521 40.25 36.87 40.5321 36.87 40.88C36.87 41.2279 37.1521 41.51 37.5 41.51Z" fill="currentColor"/>
<path d="M7.13 41.51C7.47794 41.51 7.76 41.2279 7.76 40.88C7.76 40.5321 7.47794 40.25 7.13 40.25C6.78206 40.25 6.5 40.5321 6.5 40.88C6.5 41.2279 6.78206 41.51 7.13 41.51Z" fill="currentColor"/>
</g>
<defs>
<clipPath id="clip0_2574_65979">
<rect width="35" height="35" fill="currentColor" transform="translate(6.5 6.5)"/>
</clipPath>
</defs>
</svg>
