<svg width="48" height="48" viewBox="0 0 48 48" fill="currentColor" xmlns="http://www.w3.org/2000/svg">
<g clip-path="url(#clip0)">
<path d="M23.5 6.00001C20.0389 6.00001 16.6554 7.02636 13.7776 8.94929C10.8997 10.8722 8.65666 13.6053 7.33212 16.803C6.00759 20.0008 5.66103 23.5194 6.33627 26.9141C7.01151 30.3088 8.67822 33.427 11.1256 35.8744C13.5731 38.3218 16.6913 39.9885 20.086 40.6637C23.4806 41.339 26.9993 40.9924 30.197 39.6679C33.3947 38.3434 36.1278 36.1003 38.0508 33.2225C39.9737 30.3446 41 26.9612 41 23.5C41.0013 21.2015 40.5496 18.9253 39.6706 16.8015C38.7916 14.6777 37.5026 12.748 35.8773 11.1227C34.2521 9.49742 32.3223 8.20843 30.1985 7.32944C28.0747 6.45044 25.7985 5.99869 23.5 6.00001ZM17.93 17.48C18.3019 17.48 18.6654 17.5903 18.9745 17.7968C19.2837 18.0034 19.5246 18.297 19.6669 18.6406C19.8092 18.9841 19.8464 19.3621 19.7739 19.7268C19.7014 20.0915 19.5223 20.4264 19.2594 20.6894C18.9964 20.9523 18.6615 21.1313 18.2968 21.2039C17.9321 21.2764 17.5541 21.2392 17.2106 21.0969C16.8671 20.9546 16.5734 20.7136 16.3669 20.4045C16.1603 20.0953 16.05 19.7318 16.05 19.36C16.05 18.8614 16.2481 18.3832 16.6007 18.0306C16.9532 17.6781 17.4314 17.48 17.93 17.48ZM30.56 30.57C28.6848 32.4447 26.1417 33.4979 23.49 33.4979C20.8384 33.4979 18.2953 32.4447 16.42 30.57C16.1853 30.3353 16.0534 30.0169 16.0534 29.685C16.0534 29.3531 16.1853 29.0347 16.42 28.8C16.6547 28.5653 16.9731 28.4334 17.305 28.4334C17.637 28.4334 17.9553 28.5653 18.19 28.8C18.885 29.4978 19.7109 30.0516 20.6205 30.4294C21.53 30.8072 22.5051 31.0017 23.49 31.0017C24.4749 31.0017 25.4501 30.8072 26.3596 30.4294C27.2691 30.0516 28.095 29.4978 28.79 28.8C28.9061 28.6836 29.0441 28.5912 29.196 28.5282C29.3478 28.4652 29.5106 28.4328 29.675 28.4328C29.8394 28.4328 30.0022 28.4652 30.1541 28.5282C30.3059 28.5912 30.4439 28.6836 30.56 28.8C30.7903 29.037 30.9192 29.3545 30.9192 29.685C30.9192 30.0155 30.7903 30.333 30.56 30.57ZM29.05 21.23C28.6773 21.232 28.3125 21.1231 28.0018 20.9173C27.6911 20.7115 27.4486 20.418 27.3051 20.0741C27.1616 19.7302 27.1235 19.3513 27.1957 18.9857C27.2679 18.6201 27.4471 18.2842 27.7107 18.0207C27.9742 17.7571 28.3101 17.5779 28.6758 17.5057C29.0414 17.4334 29.4202 17.4715 29.7641 17.6151C30.1081 17.7586 30.4015 18.0011 30.6073 18.3118C30.8131 18.6225 30.922 18.9873 30.92 19.36C30.9174 19.8534 30.7209 20.3261 30.373 20.6759C30.025 21.0257 29.5534 21.2248 29.06 21.23H29.05Z" fill="currentColor"/>
</g>
<defs>
<clipPath id="clip0">
<rect width="35" height="35" fill="currentColor" transform="translate(6 6)"/>
</clipPath>
</defs>
</svg>
