<svg width="33" height="32" viewBox="0 0 33 32" fill="none" xmlns="http://www.w3.org/2000/svg">
<circle cx="16.5" cy="16" r="15.5" fill="#31ABD8" stroke="white"/>
<path d="M21.2348 10.7343L15.1972 16.7676C15.1507 16.8148 15.0953 16.8524 15.0341 16.878C14.9729 16.9036 14.9073 16.9168 14.841 16.9168C14.7747 16.9168 14.7091 16.9036 14.6479 16.878C14.5867 16.8524 14.5313 16.8148 14.4848 16.7676L11.7723 14.0593C11.6777 13.9649 11.5496 13.9118 11.416 13.9118C11.2824 13.9118 11.1543 13.9649 11.0597 14.0593L9.56393 15.5509C9.46953 15.6455 9.4165 15.7736 9.4165 15.9072C9.4165 16.0408 9.46953 16.1689 9.56393 16.2634L12.6306 19.3301L14.4848 21.1843C14.5793 21.2787 14.7074 21.3317 14.841 21.3317C14.9746 21.3317 15.1027 21.2787 15.1972 21.1843L23.4431 12.9384C23.5375 12.8439 23.5905 12.7158 23.5905 12.5822C23.5905 12.4486 23.5375 12.3205 23.4431 12.2259L21.9473 10.7301C21.9005 10.6831 21.8448 10.6459 21.7835 10.6207C21.7222 10.5954 21.6565 10.5826 21.5901 10.583C21.5238 10.5834 21.4583 10.597 21.3972 10.6229C21.3362 10.6489 21.281 10.6868 21.2348 10.7343Z" fill="white"/>
</svg>
