<svg width="48" height="48" viewBox="0 0 48 48" fill="currentColor" xmlns="http://www.w3.org/2000/svg">
<path d="M36.3799 19.47V29.55C36.3812 29.773 36.4445 29.9913 36.5628 30.1803C36.6812 30.3693 36.8499 30.5216 37.0499 30.62L40.2599 32.23C40.4435 32.3226 40.6478 32.3664 40.8531 32.3572C41.0585 32.3481 41.2581 32.2864 41.4328 32.178C41.6075 32.0696 41.7513 31.9181 41.8506 31.7381C41.95 31.5581 42.0014 31.3556 41.9999 31.15V17.86C41.9997 17.6553 41.947 17.4541 41.847 17.2754C41.747 17.0968 41.6029 16.9467 41.4285 16.8395C41.2541 16.7322 41.0552 16.6714 40.8506 16.6628C40.6461 16.6541 40.4427 16.6979 40.2599 16.79L37.0499 18.39C36.8491 18.4902 36.68 18.6443 36.5617 18.835C36.4434 19.0257 36.3805 19.2456 36.3799 19.47Z" fill="currentColor"/>
<path d="M12 11H8.19998C7.88172 11 7.57651 11.1265 7.35147 11.3515C7.12643 11.5766 7 11.8818 7 12.2001V36.6801C7 36.9983 7.12643 37.3035 7.35147 37.5286C7.57651 37.7536 7.88172 37.8801 8.19998 37.8801H32.68C32.9983 37.8801 33.3035 37.7536 33.5285 37.5286C33.7536 37.3035 33.88 36.9983 33.88 36.6801V12.2001C33.8813 12.0421 33.8512 11.8854 33.7914 11.7393C33.7315 11.5931 33.6432 11.4603 33.5315 11.3486C33.4198 11.2369 33.287 11.1485 33.1408 11.0887C32.9946 11.0288 32.8379 10.9987 32.68 11H12Z" fill="currentColor"/>
</svg>
