<svg width="48" height="48" viewBox="0 0 48 48" fill="currentColor" xmlns="http://www.w3.org/2000/svg">
<path fill-rule="evenodd" clip-rule="evenodd" d="M40.1899 16.5202L37.04 18.1002C36.8411 18.1991 36.6738 18.3518 36.5571 18.5409C36.4405 18.73 36.3791 18.948 36.38 19.1702V29.2502C36.3814 29.4719 36.4437 29.6889 36.5601 29.8776C36.6765 30.0663 36.8425 30.2194 37.04 30.3202L40.1899 31.8902C40.3724 31.98 40.5747 32.022 40.7778 32.0122C40.981 32.0024 41.1782 31.9411 41.3512 31.8341C41.5242 31.7272 41.6671 31.578 41.7665 31.4006C41.866 31.2233 41.9188 31.0235 41.9199 30.8202V17.6002C41.9205 17.396 41.869 17.195 41.7702 17.0163C41.6714 16.8376 41.5286 16.687 41.3554 16.5789C41.1822 16.4707 40.9842 16.4086 40.7803 16.3983C40.5763 16.388 40.3732 16.43 40.1899 16.5202Z" fill="currentColor"/>
<path fill-rule="evenodd" clip-rule="evenodd" d="M9.05002 15.7201C8.88219 15.5517 8.66811 15.437 8.43494 15.3904C8.20177 15.3439 7.96003 15.3676 7.74039 15.4587C7.52076 15.5498 7.33312 15.704 7.2013 15.9019C7.06948 16.0998 6.99942 16.3324 7 16.5701V36.4201C7 36.7384 7.12643 37.0436 7.35147 37.2687C7.57652 37.4937 7.88176 37.6201 8.20002 37.6201H28.05C28.2878 37.6207 28.5204 37.5507 28.7183 37.4188C28.9161 37.287 29.0704 37.0994 29.1614 36.8798C29.2525 36.6601 29.2763 36.4184 29.2297 36.1852C29.1832 35.9521 29.0684 35.738 28.9 35.5701L9.05002 15.7201Z" fill="currentColor"/>
<path fill-rule="evenodd" clip-rule="evenodd" d="M34.23 30.2602C34.0079 30.0327 33.8824 29.7281 33.88 29.4102V11.8902C33.88 11.5746 33.7546 11.2719 33.5315 11.0487C33.3083 10.8255 33.0056 10.7002 32.69 10.7002H15.17C14.8521 10.6977 14.5474 10.5723 14.32 10.3502L11.32 7.35017C11.2096 7.23699 11.0773 7.14755 10.9311 7.08737C10.785 7.02718 10.628 6.99751 10.47 7.00016C10.3122 6.99978 10.156 7.03049 10.0101 7.09054C9.86428 7.1506 9.73172 7.23883 9.62 7.35017L7.78998 9.18017C7.67811 9.29166 7.58934 9.42413 7.52878 9.56999C7.46821 9.71585 7.43704 9.87223 7.43704 10.0302C7.43704 10.1881 7.46821 10.3445 7.52878 10.4904C7.58934 10.6362 7.67811 10.7687 7.78998 10.8802L12.86 15.9502L18.62 21.7102L37.49 40.5902C37.6014 40.702 37.7339 40.7908 37.8798 40.8514C38.0257 40.9119 38.1821 40.9431 38.34 40.9431C38.4979 40.9431 38.6543 40.9119 38.8001 40.8514C38.946 40.7908 39.0785 40.702 39.19 40.5902L41.03 38.7502C41.1419 38.6387 41.2306 38.5062 41.2912 38.3604C41.3517 38.2145 41.3829 38.0581 41.3829 37.9002C41.3829 37.7422 41.3517 37.5858 41.2912 37.44C41.2306 37.2941 41.1419 37.1617 41.03 37.0502L34.23 30.2602Z" fill="currentColor"/>
</svg>
