<svg width="47" height="48" viewBox="0 0 47 48" fill="currentColor" xmlns="http://www.w3.org/2000/svg">
<g clip-path="url(#clip0_2574_66188)">
<path fill-rule="evenodd" clip-rule="evenodd" d="M41.75 9.00004H4.19995C3.88169 9.00004 3.57648 9.12647 3.35144 9.35151C3.1264 9.57656 3 9.88177 3 10.2V37.8C3 38.1183 3.1264 38.4235 3.35144 38.6486C3.57648 38.8736 3.88169 39 4.19995 39H11.74V38.81V38.25C11.7213 36.3931 12.1153 34.5551 12.8936 32.869C13.6718 31.1828 14.8148 29.6906 16.24 28.5C16.3951 28.3695 16.589 28.2938 16.7915 28.2847C16.994 28.2757 17.1939 28.3338 17.36 28.45C18.9791 29.6756 20.9543 30.3389 22.985 30.3389C25.0157 30.3389 26.9908 29.6756 28.61 28.45C28.7759 28.3318 28.977 28.2733 29.1805 28.2842C29.3839 28.2951 29.5776 28.3747 29.73 28.51C31.1568 29.6976 32.3016 31.1876 33.0817 32.8722C33.8617 34.5568 34.2574 36.3937 34.24 38.25V38.49V39H41.76C42.0783 39 42.3835 38.8736 42.6085 38.6486C42.8336 38.4235 42.96 38.1183 42.96 37.8V10.18C42.9547 9.86352 42.8246 9.56191 42.598 9.34089C42.3713 9.11988 42.0666 8.99736 41.75 9.00004ZM22.98 28.46C20.9909 28.46 19.0832 27.6699 17.6767 26.2633C16.2702 24.8568 15.48 22.9492 15.48 20.96C15.48 18.9709 16.2702 17.0632 17.6767 15.6567C19.0832 14.2502 20.9909 13.46 22.98 13.46C23.9649 13.46 24.9402 13.654 25.8501 14.0309C26.76 14.4078 27.5868 14.9603 28.2833 15.6567C28.9797 16.3532 29.5321 17.18 29.9091 18.0899C30.286 18.9999 30.48 19.9751 30.48 20.96C30.48 21.9449 30.286 22.9202 29.9091 23.8302C29.5321 24.7401 28.9797 25.5669 28.2833 26.2633C27.5868 26.9598 26.76 27.5122 25.8501 27.8891C24.9402 28.2661 23.9649 28.46 22.98 28.46ZM5.52002 12.8604C6.21038 12.8604 6.77002 12.3007 6.77002 11.6104C6.77002 10.92 6.21038 10.3604 5.52002 10.3604C4.82966 10.3604 4.27002 10.92 4.27002 11.6104C4.27002 12.3007 4.82966 12.8604 5.52002 12.8604ZM11.7598 11.6104C11.7598 12.3007 11.2001 12.8604 10.5098 12.8604C9.81941 12.8604 9.25977 12.3007 9.25977 11.6104C9.25977 10.92 9.81941 10.3604 10.5098 10.3604C11.2001 10.3604 11.7598 10.92 11.7598 11.6104ZM15.5 12.8604C16.1904 12.8604 16.75 12.3007 16.75 11.6104C16.75 10.92 16.1904 10.3604 15.5 10.3604C14.8096 10.3604 14.25 10.92 14.25 11.6104C14.25 12.3007 14.8096 12.8604 15.5 12.8604ZM21.73 11.6104C21.73 12.3007 21.1703 12.8604 20.48 12.8604C19.7896 12.8604 19.23 12.3007 19.23 11.6104C19.23 10.92 19.7896 10.3604 20.48 10.3604C21.1703 10.3604 21.73 10.92 21.73 11.6104ZM25.4702 12.8604C26.1606 12.8604 26.7202 12.3007 26.7202 11.6104C26.7202 10.92 26.1606 10.3604 25.4702 10.3604C24.7799 10.3604 24.2202 10.92 24.2202 11.6104C24.2202 12.3007 24.7799 12.8604 25.4702 12.8604ZM41.6699 11.6104C41.6699 12.3007 41.1103 12.8604 40.4199 12.8604C39.7296 12.8604 39.1699 12.3007 39.1699 11.6104C39.1699 10.92 39.7296 10.3604 40.4199 10.3604C41.1103 10.3604 41.6699 10.92 41.6699 11.6104ZM35.4399 12.8604C36.1303 12.8604 36.6899 12.3007 36.6899 11.6104C36.6899 10.92 36.1303 10.3604 35.4399 10.3604C34.7496 10.3604 34.1899 10.92 34.1899 11.6104C34.1899 12.3007 34.7496 12.8604 35.4399 12.8604ZM31.7002 11.6104C31.7002 12.3007 31.1406 12.8604 30.4502 12.8604C29.7598 12.8604 29.2002 12.3007 29.2002 11.6104C29.2002 10.92 29.7598 10.3604 30.4502 10.3604C31.1406 10.3604 31.7002 10.92 31.7002 11.6104ZM5.52002 17.8203C6.21038 17.8203 6.77002 17.2607 6.77002 16.5703C6.77002 15.88 6.21038 15.3203 5.52002 15.3203C4.82966 15.3203 4.27002 15.88 4.27002 16.5703C4.27002 17.2607 4.82966 17.8203 5.52002 17.8203ZM11.7598 16.5703C11.7598 17.2607 11.2001 17.8203 10.5098 17.8203C9.81941 17.8203 9.25977 17.2607 9.25977 16.5703C9.25977 15.88 9.81941 15.3203 10.5098 15.3203C11.2001 15.3203 11.7598 15.88 11.7598 16.5703ZM40.4199 17.8203C41.1103 17.8203 41.6699 17.2607 41.6699 16.5703C41.6699 15.88 41.1103 15.3203 40.4199 15.3203C39.7296 15.3203 39.1699 15.88 39.1699 16.5703C39.1699 17.2607 39.7296 17.8203 40.4199 17.8203ZM36.6899 16.5703C36.6899 17.2607 36.1303 17.8203 35.4399 17.8203C34.7496 17.8203 34.1899 17.2607 34.1899 16.5703C34.1899 15.88 34.7496 15.3203 35.4399 15.3203C36.1303 15.3203 36.6899 15.88 36.6899 16.5703ZM5.52002 22.7695C6.21038 22.7695 6.77002 22.2099 6.77002 21.5195C6.77002 20.8292 6.21038 20.2695 5.52002 20.2695C4.82966 20.2695 4.27002 20.8292 4.27002 21.5195C4.27002 22.2099 4.82966 22.7695 5.52002 22.7695ZM11.7598 21.5195C11.7598 22.2099 11.2001 22.7695 10.5098 22.7695C9.81941 22.7695 9.25977 22.2099 9.25977 21.5195C9.25977 20.8292 9.81941 20.2695 10.5098 20.2695C11.2001 20.2695 11.7598 20.8292 11.7598 21.5195ZM40.4199 22.7695C41.1103 22.7695 41.6699 22.2099 41.6699 21.5195C41.6699 20.8292 41.1103 20.2695 40.4199 20.2695C39.7296 20.2695 39.1699 20.8292 39.1699 21.5195C39.1699 22.2099 39.7296 22.7695 40.4199 22.7695ZM36.6899 21.5195C36.6899 22.2099 36.1303 22.7695 35.4399 22.7695C34.7496 22.7695 34.1899 22.2099 34.1899 21.5195C34.1899 20.8292 34.7496 20.2695 35.4399 20.2695C36.1303 20.2695 36.6899 20.8292 36.6899 21.5195ZM5.52002 27.7305C6.21038 27.7305 6.77002 27.1708 6.77002 26.4805C6.77002 25.7901 6.21038 25.2305 5.52002 25.2305C4.82966 25.2305 4.27002 25.7901 4.27002 26.4805C4.27002 27.1708 4.82966 27.7305 5.52002 27.7305ZM11.7598 26.4805C11.7598 27.1708 11.2001 27.7305 10.5098 27.7305C9.81941 27.7305 9.25977 27.1708 9.25977 26.4805C9.25977 25.7901 9.81941 25.2305 10.5098 25.2305C11.2001 25.2305 11.7598 25.7901 11.7598 26.4805ZM40.4199 27.7305C41.1103 27.7305 41.6699 27.1708 41.6699 26.4805C41.6699 25.7901 41.1103 25.2305 40.4199 25.2305C39.7296 25.2305 39.1699 25.7901 39.1699 26.4805C39.1699 27.1708 39.7296 27.7305 40.4199 27.7305ZM36.6899 26.4805C36.6899 27.1708 36.1303 27.7305 35.4399 27.7305C34.7496 27.7305 34.1899 27.1708 34.1899 26.4805C34.1899 25.7901 34.7496 25.2305 35.4399 25.2305C36.1303 25.2305 36.6899 25.7901 36.6899 26.4805ZM5.52002 32.6797C6.21038 32.6797 6.77002 32.12 6.77002 31.4297C6.77002 30.7393 6.21038 30.1797 5.52002 30.1797C4.82966 30.1797 4.27002 30.7393 4.27002 31.4297C4.27002 32.12 4.82966 32.6797 5.52002 32.6797ZM11.7598 31.4297C11.7598 32.12 11.2001 32.6797 10.5098 32.6797C9.81941 32.6797 9.25977 32.12 9.25977 31.4297C9.25977 30.7393 9.81941 30.1797 10.5098 30.1797C11.2001 30.1797 11.7598 30.7393 11.7598 31.4297ZM40.4199 32.6797C41.1103 32.6797 41.6699 32.12 41.6699 31.4297C41.6699 30.7393 41.1103 30.1797 40.4199 30.1797C39.7296 30.1797 39.1699 30.7393 39.1699 31.4297C39.1699 32.12 39.7296 32.6797 40.4199 32.6797ZM36.6899 31.4297C36.6899 32.12 36.1303 32.6797 35.4399 32.6797C34.7496 32.6797 34.1899 32.12 34.1899 31.4297C34.1899 30.7393 34.7496 30.1797 35.4399 30.1797C36.1303 30.1797 36.6899 30.7393 36.6899 31.4297ZM5.52002 37.6396C6.21038 37.6396 6.77002 37.08 6.77002 36.3896C6.77002 35.6993 6.21038 35.1396 5.52002 35.1396C4.82966 35.1396 4.27002 35.6993 4.27002 36.3896C4.27002 37.08 4.82966 37.6396 5.52002 37.6396ZM41.6699 36.3896C41.6699 37.08 41.1103 37.6396 40.4199 37.6396C39.7296 37.6396 39.1699 37.08 39.1699 36.3896C39.1699 35.6993 39.7296 35.1396 40.4199 35.1396C41.1103 35.1396 41.6699 35.6993 41.6699 36.3896Z" fill="currentColor"/>
</g>
<defs>
<clipPath id="clip0_2574_66188">
<rect width="39.95" height="30" fill="currentColor" transform="translate(3 9)"/>
</clipPath>
</defs>
</svg>
